solid ASCII
  facet normal -1.000000e+00 -0.000000e+00 -0.000000e+00
    outer loop
      vertex   2.100000e+00 -2.500000e+01 6.350000e+00
      vertex   2.100000e+00 -2.500000e+01 3.150000e+00
      vertex   2.100000e+00 -2.600000e+01 6.350000e+00
    endloop
  endfacet
  facet normal -1.000000e+00 0.000000e+00 0.000000e+00
    outer loop
      vertex   2.100000e+00 -2.600000e+01 6.350000e+00
      vertex   2.100000e+00 -2.500000e+01 3.150000e+00
      vertex   2.100000e+00 -2.600000e+01 3.150000e+00
    endloop
  endfacet
  facet normal 0.000000e+00 0.000000e+00 -1.000000e+00
    outer loop
      vertex   -2.100000e+00 -2.500000e+01 6.350000e+00
      vertex   2.100000e+00 -2.500000e+01 6.350000e+00
      vertex   -2.100000e+00 -2.600000e+01 6.350000e+00
    endloop
  endfacet
  facet normal 0.000000e+00 0.000000e+00 -1.000000e+00
    outer loop
      vertex   -2.100000e+00 -2.600000e+01 6.350000e+00
      vertex   2.100000e+00 -2.500000e+01 6.350000e+00
      vertex   2.100000e+00 -2.600000e+01 6.350000e+00
    endloop
  endfacet
  facet normal 1.000000e+00 0.000000e+00 -0.000000e+00
    outer loop
      vertex   -2.100000e+00 -2.500000e+01 3.150000e+00
      vertex   -2.100000e+00 -2.500000e+01 6.350000e+00
      vertex   -2.100000e+00 -2.600000e+01 3.150000e+00
    endloop
  endfacet
  facet normal 1.000000e+00 0.000000e+00 0.000000e+00
    outer loop
      vertex   -2.100000e+00 -2.600000e+01 3.150000e+00
      vertex   -2.100000e+00 -2.500000e+01 6.350000e+00
      vertex   -2.100000e+00 -2.600000e+01 6.350000e+00
    endloop
  endfacet
  facet normal 0.000000e+00 0.000000e+00 1.000000e+00
    outer loop
      vertex   2.100000e+00 -2.500000e+01 3.150000e+00
      vertex   -2.100000e+00 -2.500000e+01 3.150000e+00
      vertex   2.100000e+00 -2.600000e+01 3.150000e+00
    endloop
  endfacet
  facet normal 0.000000e+00 0.000000e+00 1.000000e+00
    outer loop
      vertex   2.100000e+00 -2.600000e+01 3.150000e+00
      vertex   -2.100000e+00 -2.500000e+01 3.150000e+00
      vertex   -2.100000e+00 -2.600000e+01 3.150000e+00
    endloop
  endfacet
  facet normal 9.970658e-01 0.000000e+00 -7.654925e-02
    outer loop
      vertex   1.590703e+01 -2.500000e+01 4.841590e+00
      vertex   1.590703e+01 -2.600000e+01 4.841590e+00
      vertex   1.590000e+01 -2.500000e+01 4.750000e+00
    endloop
  endfacet
  facet normal 9.970658e-01 0.000000e+00 -7.654925e-02
    outer loop
      vertex   1.590000e+01 -2.500000e+01 4.750000e+00
      vertex   1.590703e+01 -2.600000e+01 4.841590e+00
      vertex   1.590000e+01 -2.600000e+01 4.750000e+00
    endloop
  endfacet
  facet normal 9.970658e-01 0.000000e+00 7.654925e-02
    outer loop
      vertex   1.590000e+01 -2.500000e+01 4.750000e+00
      vertex   1.590000e+01 -2.600000e+01 4.750000e+00
      vertex   1.590703e+01 -2.500000e+01 4.658410e+00
    endloop
  endfacet
  facet normal 9.970658e-01 0.000000e+00 7.654925e-02
    outer loop
      vertex   1.590703e+01 -2.500000e+01 4.658410e+00
      vertex   1.590000e+01 -2.600000e+01 4.750000e+00
      vertex   1.590703e+01 -2.600000e+01 4.658410e+00
    endloop
  endfacet
  facet normal 9.736954e-01 0.000000e+00 2.278535e-01
    outer loop
      vertex   1.590703e+01 -2.500000e+01 4.658410e+00
      vertex   1.590703e+01 -2.600000e+01 4.658410e+00
      vertex   1.592796e+01 -2.500000e+01 4.568968e+00
    endloop
  endfacet
  facet normal 9.736954e-01 0.000000e+00 2.278535e-01
    outer loop
      vertex   1.592796e+01 -2.500000e+01 4.568968e+00
      vertex   1.590703e+01 -2.600000e+01 4.658410e+00
      vertex   1.592796e+01 -2.600000e+01 4.568968e+00
    endloop
  endfacet
  facet normal 9.275025e-01 0.000000e+00 3.738171e-01
    outer loop
      vertex   1.592796e+01 -2.500000e+01 4.568968e+00
      vertex   1.592796e+01 -2.600000e+01 4.568968e+00
      vertex   1.596230e+01 -2.500000e+01 4.483768e+00
    endloop
  endfacet
  facet normal 9.275025e-01 0.000000e+00 3.738171e-01
    outer loop
      vertex   1.596230e+01 -2.500000e+01 4.483768e+00
      vertex   1.592796e+01 -2.600000e+01 4.568968e+00
      vertex   1.596230e+01 -2.600000e+01 4.483768e+00
    endloop
  endfacet
  facet normal 8.595696e-01 0.000000e+00 5.110187e-01
    outer loop
      vertex   1.596230e+01 -2.500000e+01 4.483768e+00
      vertex   1.596230e+01 -2.600000e+01 4.483768e+00
      vertex   1.600924e+01 -2.500000e+01 4.404809e+00
    endloop
  endfacet
  facet normal 8.595696e-01 0.000000e+00 5.110187e-01
    outer loop
      vertex   1.600924e+01 -2.500000e+01 4.404809e+00
      vertex   1.596230e+01 -2.600000e+01 4.483768e+00
      vertex   1.600924e+01 -2.600000e+01 4.404809e+00
    endloop
  endfacet
  facet normal 7.714892e-01 0.000000e+00 6.362424e-01
    outer loop
      vertex   1.600924e+01 -2.500000e+01 4.404809e+00
      vertex   1.600924e+01 -2.600000e+01 4.404809e+00
      vertex   1.606769e+01 -2.500000e+01 4.333940e+00
    endloop
  endfacet
  facet normal 7.714892e-01 0.000000e+00 6.362424e-01
    outer loop
      vertex   1.606769e+01 -2.500000e+01 4.333940e+00
      vertex   1.600924e+01 -2.600000e+01 4.404809e+00
      vertex   1.606769e+01 -2.600000e+01 4.333940e+00
    endloop
  endfacet
  facet normal 6.653257e-01 0.000000e+00 7.465532e-01
    outer loop
      vertex   1.606769e+01 -2.500000e+01 4.333940e+00
      vertex   1.606769e+01 -2.600000e+01 4.333940e+00
      vertex   1.613626e+01 -2.500000e+01 4.272824e+00
    endloop
  endfacet
  facet normal 6.653257e-01 6.630725e-16 7.465532e-01
    outer loop
      vertex   1.613626e+01 -2.500000e+01 4.272824e+00
      vertex   1.606769e+01 -2.600000e+01 4.333940e+00
      vertex   1.613626e+01 -2.600000e+01 4.272824e+00
    endloop
  endfacet
  facet normal 5.435676e-01 7.455063e-16 8.393654e-01
    outer loop
      vertex   1.613626e+01 -2.500000e+01 4.272824e+00
      vertex   1.613626e+01 -2.600000e+01 4.272824e+00
      vertex   1.621337e+01 -2.500000e+01 4.222893e+00
    endloop
  endfacet
  facet normal 5.435676e-01 7.455063e-16 8.393654e-01
    outer loop
      vertex   1.621337e+01 -2.500000e+01 4.222893e+00
      vertex   1.613626e+01 -2.600000e+01 4.272824e+00
      vertex   1.621337e+01 -2.600000e+01 4.222893e+00
    endloop
  endfacet
  facet normal 4.090686e-01 8.104660e-16 9.125036e-01
    outer loop
      vertex   1.621337e+01 -2.500000e+01 4.222893e+00
      vertex   1.621337e+01 -2.600000e+01 4.222893e+00
      vertex   1.629719e+01 -2.500000e+01 4.185316e+00
    endloop
  endfacet
  facet normal 4.090686e-01 -1.453304e-15 9.125036e-01
    outer loop
      vertex   1.629719e+01 -2.500000e+01 4.185316e+00
      vertex   1.621337e+01 -2.600000e+01 4.222893e+00
      vertex   1.629719e+01 -2.600000e+01 4.185316e+00
    endloop
  endfacet
  facet normal 2.649815e-01 -9.414034e-16 9.642535e-01
    outer loop
      vertex   1.629719e+01 -2.500000e+01 4.185316e+00
      vertex   1.629719e+01 -2.600000e+01 4.185316e+00
      vertex   1.638577e+01 -2.500000e+01 4.160975e+00
    endloop
  endfacet
  facet normal 2.649815e-01 0.000000e+00 9.642535e-01
    outer loop
      vertex   1.638577e+01 -2.500000e+01 4.160975e+00
      vertex   1.629719e+01 -2.600000e+01 4.185316e+00
      vertex   1.638577e+01 -2.600000e+01 4.160975e+00
    endloop
  endfacet
  facet normal 1.146834e-01 0.000000e+00 9.934021e-01
    outer loop
      vertex   1.638577e+01 -2.500000e+01 4.160975e+00
      vertex   1.638577e+01 -2.600000e+01 4.160975e+00
      vertex   1.647702e+01 -2.500000e+01 4.150440e+00
    endloop
  endfacet
  facet normal 1.146834e-01 0.000000e+00 9.934021e-01
    outer loop
      vertex   1.647702e+01 -2.500000e+01 4.150440e+00
      vertex   1.638577e+01 -2.600000e+01 4.160975e+00
      vertex   1.647702e+01 -2.600000e+01 4.150440e+00
    endloop
  endfacet
  facet normal -3.830273e-02 0.000000e+00 9.992662e-01
    outer loop
      vertex   1.647702e+01 -2.500000e+01 4.150440e+00
      vertex   1.647702e+01 -2.600000e+01 4.150440e+00
      vertex   1.656881e+01 -2.500000e+01 4.153959e+00
    endloop
  endfacet
  facet normal -3.830273e-02 1.360786e-16 9.992662e-01
    outer loop
      vertex   1.656881e+01 -2.500000e+01 4.153959e+00
      vertex   1.647702e+01 -2.600000e+01 4.150440e+00
      vertex   1.656881e+01 -2.600000e+01 4.153959e+00
    endloop
  endfacet
  facet normal -1.903911e-01 6.764051e-16 9.817083e-01
    outer loop
      vertex   1.656881e+01 -2.500000e+01 4.153959e+00
      vertex   1.656881e+01 -2.600000e+01 4.153959e+00
      vertex   1.665899e+01 -2.500000e+01 4.171448e+00
    endloop
  endfacet
  facet normal -1.903911e-01 0.000000e+00 9.817083e-01
    outer loop
      vertex   1.665899e+01 -2.500000e+01 4.171448e+00
      vertex   1.656881e+01 -2.600000e+01 4.153959e+00
      vertex   1.665899e+01 -2.600000e+01 4.171448e+00
    endloop
  endfacet
  facet normal -3.380169e-01 0.000000e+00 9.411400e-01
    outer loop
      vertex   1.665899e+01 -2.500000e+01 4.171448e+00
      vertex   1.665899e+01 -2.600000e+01 4.171448e+00
      vertex   1.674544e+01 -2.500000e+01 4.202498e+00
    endloop
  endfacet
  facet normal -3.380169e-01 0.000000e+00 9.411400e-01
    outer loop
      vertex   1.674544e+01 -2.500000e+01 4.202498e+00
      vertex   1.665899e+01 -2.600000e+01 4.171448e+00
      vertex   1.674544e+01 -2.600000e+01 4.202498e+00
    endloop
  endfacet
  facet normal -4.777198e-01 0.000000e+00 8.785123e-01
    outer loop
      vertex   1.674544e+01 -2.500000e+01 4.202498e+00
      vertex   1.674544e+01 -2.600000e+01 4.202498e+00
      vertex   1.682614e+01 -2.500000e+01 4.246381e+00
    endloop
  endfacet
  facet normal -4.777198e-01 -7.802756e-16 8.785123e-01
    outer loop
      vertex   1.682614e+01 -2.500000e+01 4.246381e+00
      vertex   1.674544e+01 -2.600000e+01 4.202498e+00
      vertex   1.682614e+01 -2.600000e+01 4.246381e+00
    endloop
  endfacet
  facet normal -6.062254e-01 -7.063620e-16 7.952929e-01
    outer loop
      vertex   1.682614e+01 -2.500000e+01 4.246381e+00
      vertex   1.682614e+01 -2.600000e+01 4.246381e+00
      vertex   1.689920e+01 -2.500000e+01 4.302068e+00
    endloop
  endfacet
  facet normal -6.062254e-01 0.000000e+00 7.952929e-01
    outer loop
      vertex   1.689920e+01 -2.500000e+01 4.302068e+00
      vertex   1.682614e+01 -2.600000e+01 4.246381e+00
      vertex   1.689920e+01 -2.600000e+01 4.302068e+00
    endloop
  endfacet
  facet normal -7.205216e-01 0.000000e+00 6.934325e-01
    outer loop
      vertex   1.689920e+01 -2.500000e+01 4.302068e+00
      vertex   1.689920e+01 -2.600000e+01 4.302068e+00
      vertex   1.696289e+01 -2.500000e+01 4.368255e+00
    endloop
  endfacet
  facet normal -7.205216e-01 2.559807e-15 6.934325e-01
    outer loop
      vertex   1.696289e+01 -2.500000e+01 4.368255e+00
      vertex   1.689920e+01 -2.600000e+01 4.302068e+00
      vertex   1.696289e+01 -2.600000e+01 4.368255e+00
    endloop
  endfacet
  facet normal -8.179294e-01 2.905869e-15 5.753187e-01
    outer loop
      vertex   1.696289e+01 -2.500000e+01 4.368255e+00
      vertex   1.696289e+01 -2.600000e+01 4.368255e+00
      vertex   1.701574e+01 -2.500000e+01 4.443389e+00
    endloop
  endfacet
  facet normal -8.179294e-01 0.000000e+00 5.753187e-01
    outer loop
      vertex   1.701574e+01 -2.500000e+01 4.443389e+00
      vertex   1.696289e+01 -2.600000e+01 4.368255e+00
      vertex   1.701574e+01 -2.600000e+01 4.443389e+00
    endloop
  endfacet
  facet normal -8.961656e-01 0.000000e+00 4.437198e-01
    outer loop
      vertex   1.701574e+01 -2.500000e+01 4.443389e+00
      vertex   1.701574e+01 -2.600000e+01 4.443389e+00
      vertex   1.705650e+01 -2.500000e+01 4.525710e+00
    endloop
  endfacet
  facet normal -8.961656e-01 -3.941024e-16 4.437198e-01
    outer loop
      vertex   1.705650e+01 -2.500000e+01 4.525710e+00
      vertex   1.701574e+01 -2.600000e+01 4.443389e+00
      vertex   1.705650e+01 -2.600000e+01 4.525710e+00
    endloop
  endfacet
  facet normal -9.533964e-01 -2.679817e-16 3.017206e-01
    outer loop
      vertex   1.705650e+01 -2.500000e+01 4.525710e+00
      vertex   1.705650e+01 -2.600000e+01 4.525710e+00
      vertex   1.708422e+01 -2.500000e+01 4.613288e+00
    endloop
  endfacet
  facet normal -9.533964e-01 -2.679817e-16 3.017206e-01
    outer loop
      vertex   1.708422e+01 -2.500000e+01 4.613288e+00
      vertex   1.705650e+01 -2.600000e+01 4.525710e+00
      vertex   1.708422e+01 -2.600000e+01 4.613288e+00
    endloop
  endfacet
  facet normal -9.882804e-01 -1.355798e-16 1.526493e-01
    outer loop
      vertex   1.708422e+01 -2.500000e+01 4.613288e+00
      vertex   1.708422e+01 -2.600000e+01 4.613288e+00
      vertex   1.709824e+01 -2.500000e+01 4.704070e+00
    endloop
  endfacet
  facet normal -9.882804e-01 -1.355798e-16 1.526493e-01
    outer loop
      vertex   1.709824e+01 -2.500000e+01 4.704070e+00
      vertex   1.708422e+01 -2.600000e+01 4.613288e+00
      vertex   1.709824e+01 -2.600000e+01 4.704070e+00
    endloop
  endfacet
  facet normal -1.000000e+00 -0.000000e+00 0.000000e+00
    outer loop
      vertex   1.709824e+01 -2.500000e+01 4.704070e+00
      vertex   1.709824e+01 -2.600000e+01 4.704070e+00
      vertex   1.709824e+01 -2.500000e+01 4.795930e+00
    endloop
  endfacet
  facet normal -1.000000e+00 -0.000000e+00 0.000000e+00
    outer loop
      vertex   1.709824e+01 -2.500000e+01 4.795930e+00
      vertex   1.709824e+01 -2.600000e+01 4.704070e+00
      vertex   1.709824e+01 -2.600000e+01 4.795930e+00
    endloop
  endfacet
  facet normal -9.882804e-01 -0.000000e+00 -1.526493e-01
    outer loop
      vertex   1.709824e+01 -2.500000e+01 4.795930e+00
      vertex   1.709824e+01 -2.600000e+01 4.795930e+00
      vertex   1.708422e+01 -2.500000e+01 4.886712e+00
    endloop
  endfacet
  facet normal -9.882804e-01 -0.000000e+00 -1.526493e-01
    outer loop
      vertex   1.708422e+01 -2.500000e+01 4.886712e+00
      vertex   1.709824e+01 -2.600000e+01 4.795930e+00
      vertex   1.708422e+01 -2.600000e+01 4.886712e+00
    endloop
  endfacet
  facet normal -9.533964e-01 -0.000000e+00 -3.017206e-01
    outer loop
      vertex   1.708422e+01 -2.500000e+01 4.886712e+00
      vertex   1.708422e+01 -2.600000e+01 4.886712e+00
      vertex   1.705650e+01 -2.500000e+01 4.974290e+00
    endloop
  endfacet
  facet normal -9.533964e-01 2.679817e-16 -3.017206e-01
    outer loop
      vertex   1.705650e+01 -2.500000e+01 4.974290e+00
      vertex   1.708422e+01 -2.600000e+01 4.886712e+00
      vertex   1.705650e+01 -2.600000e+01 4.974290e+00
    endloop
  endfacet
  facet normal -8.961656e-01 3.941024e-16 -4.437198e-01
    outer loop
      vertex   1.705650e+01 -2.500000e+01 4.974290e+00
      vertex   1.705650e+01 -2.600000e+01 4.974290e+00
      vertex   1.701574e+01 -2.500000e+01 5.056611e+00
    endloop
  endfacet
  facet normal -8.961656e-01 -0.000000e+00 -4.437198e-01
    outer loop
      vertex   1.701574e+01 -2.500000e+01 5.056611e+00
      vertex   1.705650e+01 -2.600000e+01 4.974290e+00
      vertex   1.701574e+01 -2.600000e+01 5.056611e+00
    endloop
  endfacet
  facet normal -8.179294e-01 -0.000000e+00 -5.753187e-01
    outer loop
      vertex   1.701574e+01 -2.500000e+01 5.056611e+00
      vertex   1.701574e+01 -2.600000e+01 5.056611e+00
      vertex   1.696289e+01 -2.500000e+01 5.131745e+00
    endloop
  endfacet
  facet normal -8.179294e-01 -1.883898e-15 -5.753187e-01
    outer loop
      vertex   1.696289e+01 -2.500000e+01 5.131745e+00
      vertex   1.701574e+01 -2.600000e+01 5.056611e+00
      vertex   1.696289e+01 -2.600000e+01 5.131745e+00
    endloop
  endfacet
  facet normal -7.205216e-01 -1.328023e-15 -6.934325e-01
    outer loop
      vertex   1.696289e+01 -2.500000e+01 5.131745e+00
      vertex   1.696289e+01 -2.600000e+01 5.131745e+00
      vertex   1.689920e+01 -2.500000e+01 5.197932e+00
    endloop
  endfacet
  facet normal -7.205216e-01 -0.000000e+00 -6.934325e-01
    outer loop
      vertex   1.689920e+01 -2.500000e+01 5.197932e+00
      vertex   1.696289e+01 -2.600000e+01 5.131745e+00
      vertex   1.689920e+01 -2.600000e+01 5.197932e+00
    endloop
  endfacet
  facet normal -6.062254e-01 -0.000000e+00 -7.952929e-01
    outer loop
      vertex   1.689920e+01 -2.500000e+01 5.197932e+00
      vertex   1.689920e+01 -2.600000e+01 5.197932e+00
      vertex   1.682614e+01 -2.500000e+01 5.253619e+00
    endloop
  endfacet
  facet normal -6.062254e-01 -0.000000e+00 -7.952929e-01
    outer loop
      vertex   1.682614e+01 -2.500000e+01 5.253619e+00
      vertex   1.689920e+01 -2.600000e+01 5.197932e+00
      vertex   1.682614e+01 -2.600000e+01 5.253619e+00
    endloop
  endfacet
  facet normal -4.777198e-01 -0.000000e+00 -8.785123e-01
    outer loop
      vertex   1.682614e+01 -2.500000e+01 5.253619e+00
      vertex   1.682614e+01 -2.600000e+01 5.253619e+00
      vertex   1.674544e+01 -2.500000e+01 5.297502e+00
    endloop
  endfacet
  facet normal -4.777198e-01 7.802756e-16 -8.785123e-01
    outer loop
      vertex   1.674544e+01 -2.500000e+01 5.297502e+00
      vertex   1.682614e+01 -2.600000e+01 5.253619e+00
      vertex   1.674544e+01 -2.600000e+01 5.297502e+00
    endloop
  endfacet
  facet normal -3.380169e-01 8.359003e-16 -9.411400e-01
    outer loop
      vertex   1.674544e+01 -2.500000e+01 5.297502e+00
      vertex   1.674544e+01 -2.600000e+01 5.297502e+00
      vertex   1.665899e+01 -2.500000e+01 5.328552e+00
    endloop
  endfacet
  facet normal -3.380169e-01 -0.000000e+00 -9.411400e-01
    outer loop
      vertex   1.665899e+01 -2.500000e+01 5.328552e+00
      vertex   1.674544e+01 -2.600000e+01 5.297502e+00
      vertex   1.665899e+01 -2.600000e+01 5.328552e+00
    endloop
  endfacet
  facet normal -1.903911e-01 -0.000000e+00 -9.817083e-01
    outer loop
      vertex   1.665899e+01 -2.500000e+01 5.328552e+00
      vertex   1.665899e+01 -2.600000e+01 5.328552e+00
      vertex   1.656881e+01 -2.500000e+01 5.346041e+00
    endloop
  endfacet
  facet normal -1.903911e-01 -6.764051e-16 -9.817083e-01
    outer loop
      vertex   1.656881e+01 -2.500000e+01 5.346041e+00
      vertex   1.665899e+01 -2.600000e+01 5.328552e+00
      vertex   1.656881e+01 -2.600000e+01 5.346041e+00
    endloop
  endfacet
  facet normal -3.830273e-02 -1.360786e-16 -9.992662e-01
    outer loop
      vertex   1.656881e+01 -2.500000e+01 5.346041e+00
      vertex   1.656881e+01 -2.600000e+01 5.346041e+00
      vertex   1.647702e+01 -2.500000e+01 5.349560e+00
    endloop
  endfacet
  facet normal -3.830273e-02 -0.000000e+00 -9.992662e-01
    outer loop
      vertex   1.647702e+01 -2.500000e+01 5.349560e+00
      vertex   1.656881e+01 -2.600000e+01 5.346041e+00
      vertex   1.647702e+01 -2.600000e+01 5.349560e+00
    endloop
  endfacet
  facet normal 1.146834e-01 0.000000e+00 -9.934021e-01
    outer loop
      vertex   1.647702e+01 -2.500000e+01 5.349560e+00
      vertex   1.647702e+01 -2.600000e+01 5.349560e+00
      vertex   1.638577e+01 -2.500000e+01 5.339025e+00
    endloop
  endfacet
  facet normal 1.146834e-01 0.000000e+00 -9.934021e-01
    outer loop
      vertex   1.638577e+01 -2.500000e+01 5.339025e+00
      vertex   1.647702e+01 -2.600000e+01 5.349560e+00
      vertex   1.638577e+01 -2.600000e+01 5.339025e+00
    endloop
  endfacet
  facet normal 2.649815e-01 0.000000e+00 -9.642535e-01
    outer loop
      vertex   1.638577e+01 -2.500000e+01 5.339025e+00
      vertex   1.638577e+01 -2.600000e+01 5.339025e+00
      vertex   1.629719e+01 -2.500000e+01 5.314684e+00
    endloop
  endfacet
  facet normal 2.649815e-01 9.414034e-16 -9.642535e-01
    outer loop
      vertex   1.629719e+01 -2.500000e+01 5.314684e+00
      vertex   1.638577e+01 -2.600000e+01 5.339025e+00
      vertex   1.629719e+01 -2.600000e+01 5.314684e+00
    endloop
  endfacet
  facet normal 4.090686e-01 1.453304e-15 -9.125036e-01
    outer loop
      vertex   1.629719e+01 -2.500000e+01 5.314684e+00
      vertex   1.629719e+01 -2.600000e+01 5.314684e+00
      vertex   1.621337e+01 -2.500000e+01 5.277107e+00
    endloop
  endfacet
  facet normal 4.090686e-01 0.000000e+00 -9.125036e-01
    outer loop
      vertex   1.621337e+01 -2.500000e+01 5.277107e+00
      vertex   1.629719e+01 -2.600000e+01 5.314684e+00
      vertex   1.621337e+01 -2.600000e+01 5.277107e+00
    endloop
  endfacet
  facet normal 5.435676e-01 0.000000e+00 -8.393654e-01
    outer loop
      vertex   1.621337e+01 -2.500000e+01 5.277107e+00
      vertex   1.621337e+01 -2.600000e+01 5.277107e+00
      vertex   1.613626e+01 -2.500000e+01 5.227176e+00
    endloop
  endfacet
  facet normal 5.435676e-01 0.000000e+00 -8.393654e-01
    outer loop
      vertex   1.613626e+01 -2.500000e+01 5.227176e+00
      vertex   1.621337e+01 -2.600000e+01 5.277107e+00
      vertex   1.613626e+01 -2.600000e+01 5.227176e+00
    endloop
  endfacet
  facet normal 6.653257e-01 0.000000e+00 -7.465532e-01
    outer loop
      vertex   1.613626e+01 -2.500000e+01 5.227176e+00
      vertex   1.613626e+01 -2.600000e+01 5.227176e+00
      vertex   1.606769e+01 -2.500000e+01 5.166060e+00
    endloop
  endfacet
  facet normal 6.653257e-01 0.000000e+00 -7.465532e-01
    outer loop
      vertex   1.606769e+01 -2.500000e+01 5.166060e+00
      vertex   1.613626e+01 -2.600000e+01 5.227176e+00
      vertex   1.606769e+01 -2.600000e+01 5.166060e+00
    endloop
  endfacet
  facet normal 7.714892e-01 0.000000e+00 -6.362424e-01
    outer loop
      vertex   1.606769e+01 -2.500000e+01 5.166060e+00
      vertex   1.606769e+01 -2.600000e+01 5.166060e+00
      vertex   1.600924e+01 -2.500000e+01 5.095191e+00
    endloop
  endfacet
  facet normal 7.714892e-01 -5.650968e-16 -6.362424e-01
    outer loop
      vertex   1.600924e+01 -2.500000e+01 5.095191e+00
      vertex   1.606769e+01 -2.600000e+01 5.166060e+00
      vertex   1.600924e+01 -2.600000e+01 5.095191e+00
    endloop
  endfacet
  facet normal 8.595696e-01 -4.538758e-16 -5.110187e-01
    outer loop
      vertex   1.600924e+01 -2.500000e+01 5.095191e+00
      vertex   1.600924e+01 -2.600000e+01 5.095191e+00
      vertex   1.596230e+01 -2.500000e+01 5.016232e+00
    endloop
  endfacet
  facet normal 8.595696e-01 0.000000e+00 -5.110187e-01
    outer loop
      vertex   1.596230e+01 -2.500000e+01 5.016232e+00
      vertex   1.600924e+01 -2.600000e+01 5.095191e+00
      vertex   1.596230e+01 -2.600000e+01 5.016232e+00
    endloop
  endfacet
  facet normal 9.275025e-01 0.000000e+00 -3.738171e-01
    outer loop
      vertex   1.596230e+01 -2.500000e+01 5.016232e+00
      vertex   1.596230e+01 -2.600000e+01 5.016232e+00
      vertex   1.592796e+01 -2.500000e+01 4.931032e+00
    endloop
  endfacet
  facet normal 9.275025e-01 0.000000e+00 -3.738171e-01
    outer loop
      vertex   1.592796e+01 -2.500000e+01 4.931032e+00
      vertex   1.596230e+01 -2.600000e+01 5.016232e+00
      vertex   1.592796e+01 -2.600000e+01 4.931032e+00
    endloop
  endfacet
  facet normal 9.736954e-01 0.000000e+00 -2.278535e-01
    outer loop
      vertex   1.592796e+01 -2.500000e+01 4.931032e+00
      vertex   1.592796e+01 -2.600000e+01 4.931032e+00
      vertex   1.590703e+01 -2.500000e+01 4.841590e+00
    endloop
  endfacet
  facet normal 9.736954e-01 0.000000e+00 -2.278535e-01
    outer loop
      vertex   1.590703e+01 -2.500000e+01 4.841590e+00
      vertex   1.592796e+01 -2.600000e+01 4.931032e+00
      vertex   1.590703e+01 -2.600000e+01 4.841590e+00
    endloop
  endfacet
  facet normal 9.970658e-01 0.000000e+00 -7.654925e-02
    outer loop
      vertex   -1.709297e+01 -2.500000e+01 4.841590e+00
      vertex   -1.709297e+01 -2.600000e+01 4.841590e+00
      vertex   -1.710000e+01 -2.500000e+01 4.750000e+00
    endloop
  endfacet
  facet normal 9.970658e-01 0.000000e+00 -7.654925e-02
    outer loop
      vertex   -1.710000e+01 -2.500000e+01 4.750000e+00
      vertex   -1.709297e+01 -2.600000e+01 4.841590e+00
      vertex   -1.710000e+01 -2.600000e+01 4.750000e+00
    endloop
  endfacet
  facet normal 9.970658e-01 0.000000e+00 7.654925e-02
    outer loop
      vertex   -1.710000e+01 -2.500000e+01 4.750000e+00
      vertex   -1.710000e+01 -2.600000e+01 4.750000e+00
      vertex   -1.709297e+01 -2.500000e+01 4.658410e+00
    endloop
  endfacet
  facet normal 9.970658e-01 0.000000e+00 7.654925e-02
    outer loop
      vertex   -1.709297e+01 -2.500000e+01 4.658410e+00
      vertex   -1.710000e+01 -2.600000e+01 4.750000e+00
      vertex   -1.709297e+01 -2.600000e+01 4.658410e+00
    endloop
  endfacet
  facet normal 9.736954e-01 0.000000e+00 2.278535e-01
    outer loop
      vertex   -1.709297e+01 -2.500000e+01 4.658410e+00
      vertex   -1.709297e+01 -2.600000e+01 4.658410e+00
      vertex   -1.707204e+01 -2.500000e+01 4.568968e+00
    endloop
  endfacet
  facet normal 9.736954e-01 0.000000e+00 2.278535e-01
    outer loop
      vertex   -1.707204e+01 -2.500000e+01 4.568968e+00
      vertex   -1.709297e+01 -2.600000e+01 4.658410e+00
      vertex   -1.707204e+01 -2.600000e+01 4.568968e+00
    endloop
  endfacet
  facet normal 9.275025e-01 0.000000e+00 3.738171e-01
    outer loop
      vertex   -1.707204e+01 -2.500000e+01 4.568968e+00
      vertex   -1.707204e+01 -2.600000e+01 4.568968e+00
      vertex   -1.703770e+01 -2.500000e+01 4.483768e+00
    endloop
  endfacet
  facet normal 9.275025e-01 0.000000e+00 3.738171e-01
    outer loop
      vertex   -1.703770e+01 -2.500000e+01 4.483768e+00
      vertex   -1.707204e+01 -2.600000e+01 4.568968e+00
      vertex   -1.703770e+01 -2.600000e+01 4.483768e+00
    endloop
  endfacet
  facet normal 8.595696e-01 0.000000e+00 5.110187e-01
    outer loop
      vertex   -1.703770e+01 -2.500000e+01 4.483768e+00
      vertex   -1.703770e+01 -2.600000e+01 4.483768e+00
      vertex   -1.699076e+01 -2.500000e+01 4.404809e+00
    endloop
  endfacet
  facet normal 8.595696e-01 0.000000e+00 5.110187e-01
    outer loop
      vertex   -1.699076e+01 -2.500000e+01 4.404809e+00
      vertex   -1.703770e+01 -2.600000e+01 4.483768e+00
      vertex   -1.699076e+01 -2.600000e+01 4.404809e+00
    endloop
  endfacet
  facet normal 7.714892e-01 0.000000e+00 6.362424e-01
    outer loop
      vertex   -1.699076e+01 -2.500000e+01 4.404809e+00
      vertex   -1.699076e+01 -2.600000e+01 4.404809e+00
      vertex   -1.693231e+01 -2.500000e+01 4.333940e+00
    endloop
  endfacet
  facet normal 7.714892e-01 0.000000e+00 6.362424e-01
    outer loop
      vertex   -1.693231e+01 -2.500000e+01 4.333940e+00
      vertex   -1.699076e+01 -2.600000e+01 4.404809e+00
      vertex   -1.693231e+01 -2.600000e+01 4.333940e+00
    endloop
  endfacet
  facet normal 6.653257e-01 0.000000e+00 7.465532e-01
    outer loop
      vertex   -1.693231e+01 -2.500000e+01 4.333940e+00
      vertex   -1.693231e+01 -2.600000e+01 4.333940e+00
      vertex   -1.686374e+01 -2.500000e+01 4.272824e+00
    endloop
  endfacet
  facet normal 6.653257e-01 0.000000e+00 7.465532e-01
    outer loop
      vertex   -1.686374e+01 -2.500000e+01 4.272824e+00
      vertex   -1.693231e+01 -2.600000e+01 4.333940e+00
      vertex   -1.686374e+01 -2.600000e+01 4.272824e+00
    endloop
  endfacet
  facet normal 5.435676e-01 0.000000e+00 8.393654e-01
    outer loop
      vertex   -1.686374e+01 -2.500000e+01 4.272824e+00
      vertex   -1.686374e+01 -2.600000e+01 4.272824e+00
      vertex   -1.678663e+01 -2.500000e+01 4.222893e+00
    endloop
  endfacet
  facet normal 5.435676e-01 0.000000e+00 8.393654e-01
    outer loop
      vertex   -1.678663e+01 -2.500000e+01 4.222893e+00
      vertex   -1.686374e+01 -2.600000e+01 4.272824e+00
      vertex   -1.678663e+01 -2.600000e+01 4.222893e+00
    endloop
  endfacet
  facet normal 4.090686e-01 0.000000e+00 9.125036e-01
    outer loop
      vertex   -1.678663e+01 -2.500000e+01 4.222893e+00
      vertex   -1.678663e+01 -2.600000e+01 4.222893e+00
      vertex   -1.670281e+01 -2.500000e+01 4.185316e+00
    endloop
  endfacet
  facet normal 4.090686e-01 -1.453304e-15 9.125036e-01
    outer loop
      vertex   -1.670281e+01 -2.500000e+01 4.185316e+00
      vertex   -1.678663e+01 -2.600000e+01 4.222893e+00
      vertex   -1.670281e+01 -2.600000e+01 4.185316e+00
    endloop
  endfacet
  facet normal 2.649815e-01 -9.414034e-16 9.642535e-01
    outer loop
      vertex   -1.670281e+01 -2.500000e+01 4.185316e+00
      vertex   -1.670281e+01 -2.600000e+01 4.185316e+00
      vertex   -1.661423e+01 -2.500000e+01 4.160975e+00
    endloop
  endfacet
  facet normal 2.649815e-01 0.000000e+00 9.642535e-01
    outer loop
      vertex   -1.661423e+01 -2.500000e+01 4.160975e+00
      vertex   -1.670281e+01 -2.600000e+01 4.185316e+00
      vertex   -1.661423e+01 -2.600000e+01 4.160975e+00
    endloop
  endfacet
  facet normal 1.146834e-01 0.000000e+00 9.934021e-01
    outer loop
      vertex   -1.661423e+01 -2.500000e+01 4.160975e+00
      vertex   -1.661423e+01 -2.600000e+01 4.160975e+00
      vertex   -1.652298e+01 -2.500000e+01 4.150440e+00
    endloop
  endfacet
  facet normal 1.146834e-01 0.000000e+00 9.934021e-01
    outer loop
      vertex   -1.652298e+01 -2.500000e+01 4.150440e+00
      vertex   -1.661423e+01 -2.600000e+01 4.160975e+00
      vertex   -1.652298e+01 -2.600000e+01 4.150440e+00
    endloop
  endfacet
  facet normal -3.830273e-02 0.000000e+00 9.992662e-01
    outer loop
      vertex   -1.652298e+01 -2.500000e+01 4.150440e+00
      vertex   -1.652298e+01 -2.600000e+01 4.150440e+00
      vertex   -1.643119e+01 -2.500000e+01 4.153959e+00
    endloop
  endfacet
  facet normal -3.830273e-02 1.360786e-16 9.992662e-01
    outer loop
      vertex   -1.643119e+01 -2.500000e+01 4.153959e+00
      vertex   -1.652298e+01 -2.600000e+01 4.150440e+00
      vertex   -1.643119e+01 -2.600000e+01 4.153959e+00
    endloop
  endfacet
  facet normal -1.903911e-01 6.764051e-16 9.817083e-01
    outer loop
      vertex   -1.643119e+01 -2.500000e+01 4.153959e+00
      vertex   -1.643119e+01 -2.600000e+01 4.153959e+00
      vertex   -1.634101e+01 -2.500000e+01 4.171448e+00
    endloop
  endfacet
  facet normal -1.903911e-01 0.000000e+00 9.817083e-01
    outer loop
      vertex   -1.634101e+01 -2.500000e+01 4.171448e+00
      vertex   -1.643119e+01 -2.600000e+01 4.153959e+00
      vertex   -1.634101e+01 -2.600000e+01 4.171448e+00
    endloop
  endfacet
  facet normal -3.380169e-01 0.000000e+00 9.411400e-01
    outer loop
      vertex   -1.634101e+01 -2.500000e+01 4.171448e+00
      vertex   -1.634101e+01 -2.600000e+01 4.171448e+00
      vertex   -1.625456e+01 -2.500000e+01 4.202498e+00
    endloop
  endfacet
  facet normal -3.380169e-01 0.000000e+00 9.411400e-01
    outer loop
      vertex   -1.625456e+01 -2.500000e+01 4.202498e+00
      vertex   -1.634101e+01 -2.600000e+01 4.171448e+00
      vertex   -1.625456e+01 -2.600000e+01 4.202498e+00
    endloop
  endfacet
  facet normal -4.777198e-01 0.000000e+00 8.785123e-01
    outer loop
      vertex   -1.625456e+01 -2.500000e+01 4.202498e+00
      vertex   -1.625456e+01 -2.600000e+01 4.202498e+00
      vertex   -1.617386e+01 -2.500000e+01 4.246381e+00
    endloop
  endfacet
  facet normal -4.777198e-01 -7.802756e-16 8.785123e-01
    outer loop
      vertex   -1.617386e+01 -2.500000e+01 4.246381e+00
      vertex   -1.625456e+01 -2.600000e+01 4.202498e+00
      vertex   -1.617386e+01 -2.600000e+01 4.246381e+00
    endloop
  endfacet
  facet normal -6.062254e-01 -7.063620e-16 7.952929e-01
    outer loop
      vertex   -1.617386e+01 -2.500000e+01 4.246381e+00
      vertex   -1.617386e+01 -2.600000e+01 4.246381e+00
      vertex   -1.610080e+01 -2.500000e+01 4.302068e+00
    endloop
  endfacet
  facet normal -6.062254e-01 -7.063620e-16 7.952929e-01
    outer loop
      vertex   -1.610080e+01 -2.500000e+01 4.302068e+00
      vertex   -1.617386e+01 -2.600000e+01 4.246381e+00
      vertex   -1.610080e+01 -2.600000e+01 4.302068e+00
    endloop
  endfacet
  facet normal -7.205216e-01 -6.158918e-16 6.934325e-01
    outer loop
      vertex   -1.610080e+01 -2.500000e+01 4.302068e+00
      vertex   -1.610080e+01 -2.600000e+01 4.302068e+00
      vertex   -1.603711e+01 -2.500000e+01 4.368255e+00
    endloop
  endfacet
  facet normal -7.205216e-01 2.559807e-15 6.934325e-01
    outer loop
      vertex   -1.603711e+01 -2.500000e+01 4.368255e+00
      vertex   -1.610080e+01 -2.600000e+01 4.302068e+00
      vertex   -1.603711e+01 -2.600000e+01 4.368255e+00
    endloop
  endfacet
  facet normal -8.179294e-01 2.905869e-15 5.753187e-01
    outer loop
      vertex   -1.603711e+01 -2.500000e+01 4.368255e+00
      vertex   -1.603711e+01 -2.600000e+01 4.368255e+00
      vertex   -1.598426e+01 -2.500000e+01 4.443389e+00
    endloop
  endfacet
  facet normal -8.179294e-01 0.000000e+00 5.753187e-01
    outer loop
      vertex   -1.598426e+01 -2.500000e+01 4.443389e+00
      vertex   -1.603711e+01 -2.600000e+01 4.368255e+00
      vertex   -1.598426e+01 -2.600000e+01 4.443389e+00
    endloop
  endfacet
  facet normal -8.961656e-01 0.000000e+00 4.437198e-01
    outer loop
      vertex   -1.598426e+01 -2.500000e+01 4.443389e+00
      vertex   -1.598426e+01 -2.600000e+01 4.443389e+00
      vertex   -1.594350e+01 -2.500000e+01 4.525710e+00
    endloop
  endfacet
  facet normal -8.961656e-01 0.000000e+00 4.437198e-01
    outer loop
      vertex   -1.594350e+01 -2.500000e+01 4.525710e+00
      vertex   -1.598426e+01 -2.600000e+01 4.443389e+00
      vertex   -1.594350e+01 -2.600000e+01 4.525710e+00
    endloop
  endfacet
  facet normal -9.533964e-01 0.000000e+00 3.017206e-01
    outer loop
      vertex   -1.594350e+01 -2.500000e+01 4.525710e+00
      vertex   -1.594350e+01 -2.600000e+01 4.525710e+00
      vertex   -1.591578e+01 -2.500000e+01 4.613288e+00
    endloop
  endfacet
  facet normal -9.533964e-01 -2.679817e-16 3.017206e-01
    outer loop
      vertex   -1.591578e+01 -2.500000e+01 4.613288e+00
      vertex   -1.594350e+01 -2.600000e+01 4.525710e+00
      vertex   -1.591578e+01 -2.600000e+01 4.613288e+00
    endloop
  endfacet
  facet normal -9.882804e-01 -1.355798e-16 1.526493e-01
    outer loop
      vertex   -1.591578e+01 -2.500000e+01 4.613288e+00
      vertex   -1.591578e+01 -2.600000e+01 4.613288e+00
      vertex   -1.590176e+01 -2.500000e+01 4.704070e+00
    endloop
  endfacet
  facet normal -9.882804e-01 -1.355798e-16 1.526493e-01
    outer loop
      vertex   -1.590176e+01 -2.500000e+01 4.704070e+00
      vertex   -1.591578e+01 -2.600000e+01 4.613288e+00
      vertex   -1.590176e+01 -2.600000e+01 4.704070e+00
    endloop
  endfacet
  facet normal -1.000000e+00 -0.000000e+00 0.000000e+00
    outer loop
      vertex   -1.590176e+01 -2.500000e+01 4.704070e+00
      vertex   -1.590176e+01 -2.600000e+01 4.704070e+00
      vertex   -1.590176e+01 -2.500000e+01 4.795930e+00
    endloop
  endfacet
  facet normal -1.000000e+00 0.000000e+00 0.000000e+00
    outer loop
      vertex   -1.590176e+01 -2.500000e+01 4.795930e+00
      vertex   -1.590176e+01 -2.600000e+01 4.704070e+00
      vertex   -1.590176e+01 -2.600000e+01 4.795930e+00
    endloop
  endfacet
  facet normal -9.882804e-01 1.355798e-16 -1.526493e-01
    outer loop
      vertex   -1.590176e+01 -2.500000e+01 4.795930e+00
      vertex   -1.590176e+01 -2.600000e+01 4.795930e+00
      vertex   -1.591578e+01 -2.500000e+01 4.886712e+00
    endloop
  endfacet
  facet normal -9.882804e-01 1.355798e-16 -1.526493e-01
    outer loop
      vertex   -1.591578e+01 -2.500000e+01 4.886712e+00
      vertex   -1.590176e+01 -2.600000e+01 4.795930e+00
      vertex   -1.591578e+01 -2.600000e+01 4.886712e+00
    endloop
  endfacet
  facet normal -9.533964e-01 2.679817e-16 -3.017206e-01
    outer loop
      vertex   -1.591578e+01 -2.500000e+01 4.886712e+00
      vertex   -1.591578e+01 -2.600000e+01 4.886712e+00
      vertex   -1.594350e+01 -2.500000e+01 4.974290e+00
    endloop
  endfacet
  facet normal -9.533964e-01 -0.000000e+00 -3.017206e-01
    outer loop
      vertex   -1.594350e+01 -2.500000e+01 4.974290e+00
      vertex   -1.591578e+01 -2.600000e+01 4.886712e+00
      vertex   -1.594350e+01 -2.600000e+01 4.974290e+00
    endloop
  endfacet
  facet normal -8.961656e-01 -0.000000e+00 -4.437198e-01
    outer loop
      vertex   -1.594350e+01 -2.500000e+01 4.974290e+00
      vertex   -1.594350e+01 -2.600000e+01 4.974290e+00
      vertex   -1.598426e+01 -2.500000e+01 5.056611e+00
    endloop
  endfacet
  facet normal -8.961656e-01 3.941024e-16 -4.437198e-01
    outer loop
      vertex   -1.598426e+01 -2.500000e+01 5.056611e+00
      vertex   -1.594350e+01 -2.600000e+01 4.974290e+00
      vertex   -1.598426e+01 -2.600000e+01 5.056611e+00
    endloop
  endfacet
  facet normal -8.179294e-01 5.109856e-16 -5.753187e-01
    outer loop
      vertex   -1.598426e+01 -2.500000e+01 5.056611e+00
      vertex   -1.598426e+01 -2.600000e+01 5.056611e+00
      vertex   -1.603711e+01 -2.500000e+01 5.131745e+00
    endloop
  endfacet
  facet normal -8.179294e-01 -2.905869e-15 -5.753187e-01
    outer loop
      vertex   -1.603711e+01 -2.500000e+01 5.131745e+00
      vertex   -1.598426e+01 -2.600000e+01 5.056611e+00
      vertex   -1.603711e+01 -2.600000e+01 5.131745e+00
    endloop
  endfacet
  facet normal -7.205216e-01 -2.559807e-15 -6.934325e-01
    outer loop
      vertex   -1.603711e+01 -2.500000e+01 5.131745e+00
      vertex   -1.603711e+01 -2.600000e+01 5.131745e+00
      vertex   -1.610080e+01 -2.500000e+01 5.197932e+00
    endloop
  endfacet
  facet normal -7.205216e-01 -0.000000e+00 -6.934325e-01
    outer loop
      vertex   -1.610080e+01 -2.500000e+01 5.197932e+00
      vertex   -1.603711e+01 -2.600000e+01 5.131745e+00
      vertex   -1.610080e+01 -2.600000e+01 5.197932e+00
    endloop
  endfacet
  facet normal -6.062254e-01 -0.000000e+00 -7.952929e-01
    outer loop
      vertex   -1.610080e+01 -2.500000e+01 5.197932e+00
      vertex   -1.610080e+01 -2.600000e+01 5.197932e+00
      vertex   -1.617386e+01 -2.500000e+01 5.253619e+00
    endloop
  endfacet
  facet normal -6.062254e-01 -0.000000e+00 -7.952929e-01
    outer loop
      vertex   -1.617386e+01 -2.500000e+01 5.253619e+00
      vertex   -1.610080e+01 -2.600000e+01 5.197932e+00
      vertex   -1.617386e+01 -2.600000e+01 5.253619e+00
    endloop
  endfacet
  facet normal -4.777198e-01 -0.000000e+00 -8.785123e-01
    outer loop
      vertex   -1.617386e+01 -2.500000e+01 5.253619e+00
      vertex   -1.617386e+01 -2.600000e+01 5.253619e+00
      vertex   -1.625456e+01 -2.500000e+01 5.297502e+00
    endloop
  endfacet
  facet normal -4.777198e-01 -0.000000e+00 -8.785123e-01
    outer loop
      vertex   -1.625456e+01 -2.500000e+01 5.297502e+00
      vertex   -1.617386e+01 -2.600000e+01 5.253619e+00
      vertex   -1.625456e+01 -2.600000e+01 5.297502e+00
    endloop
  endfacet
  facet normal -3.380169e-01 -0.000000e+00 -9.411400e-01
    outer loop
      vertex   -1.625456e+01 -2.500000e+01 5.297502e+00
      vertex   -1.625456e+01 -2.600000e+01 5.297502e+00
      vertex   -1.634101e+01 -2.500000e+01 5.328552e+00
    endloop
  endfacet
  facet normal -3.380169e-01 -0.000000e+00 -9.411400e-01
    outer loop
      vertex   -1.634101e+01 -2.500000e+01 5.328552e+00
      vertex   -1.625456e+01 -2.600000e+01 5.297502e+00
      vertex   -1.634101e+01 -2.600000e+01 5.328552e+00
    endloop
  endfacet
  facet normal -1.903911e-01 -0.000000e+00 -9.817083e-01
    outer loop
      vertex   -1.634101e+01 -2.500000e+01 5.328552e+00
      vertex   -1.634101e+01 -2.600000e+01 5.328552e+00
      vertex   -1.643119e+01 -2.500000e+01 5.346041e+00
    endloop
  endfacet
  facet normal -1.903911e-01 -6.764051e-16 -9.817083e-01
    outer loop
      vertex   -1.643119e+01 -2.500000e+01 5.346041e+00
      vertex   -1.634101e+01 -2.600000e+01 5.328552e+00
      vertex   -1.643119e+01 -2.600000e+01 5.346041e+00
    endloop
  endfacet
  facet normal -3.830273e-02 -1.360786e-16 -9.992662e-01
    outer loop
      vertex   -1.643119e+01 -2.500000e+01 5.346041e+00
      vertex   -1.643119e+01 -2.600000e+01 5.346041e+00
      vertex   -1.652298e+01 -2.500000e+01 5.349560e+00
    endloop
  endfacet
  facet normal -3.830273e-02 -0.000000e+00 -9.992662e-01
    outer loop
      vertex   -1.652298e+01 -2.500000e+01 5.349560e+00
      vertex   -1.643119e+01 -2.600000e+01 5.346041e+00
      vertex   -1.652298e+01 -2.600000e+01 5.349560e+00
    endloop
  endfacet
  facet normal 1.146834e-01 0.000000e+00 -9.934021e-01
    outer loop
      vertex   -1.652298e+01 -2.500000e+01 5.349560e+00
      vertex   -1.652298e+01 -2.600000e+01 5.349560e+00
      vertex   -1.661423e+01 -2.500000e+01 5.339025e+00
    endloop
  endfacet
  facet normal 1.146834e-01 0.000000e+00 -9.934021e-01
    outer loop
      vertex   -1.661423e+01 -2.500000e+01 5.339025e+00
      vertex   -1.652298e+01 -2.600000e+01 5.349560e+00
      vertex   -1.661423e+01 -2.600000e+01 5.339025e+00
    endloop
  endfacet
  facet normal 2.649815e-01 0.000000e+00 -9.642535e-01
    outer loop
      vertex   -1.661423e+01 -2.500000e+01 5.339025e+00
      vertex   -1.661423e+01 -2.600000e+01 5.339025e+00
      vertex   -1.670281e+01 -2.500000e+01 5.314684e+00
    endloop
  endfacet
  facet normal 2.649815e-01 9.414034e-16 -9.642535e-01
    outer loop
      vertex   -1.670281e+01 -2.500000e+01 5.314684e+00
      vertex   -1.661423e+01 -2.600000e+01 5.339025e+00
      vertex   -1.670281e+01 -2.600000e+01 5.314684e+00
    endloop
  endfacet
  facet normal 4.090686e-01 1.453304e-15 -9.125036e-01
    outer loop
      vertex   -1.670281e+01 -2.500000e+01 5.314684e+00
      vertex   -1.670281e+01 -2.600000e+01 5.314684e+00
      vertex   -1.678663e+01 -2.500000e+01 5.277107e+00
    endloop
  endfacet
  facet normal 4.090686e-01 0.000000e+00 -9.125036e-01
    outer loop
      vertex   -1.678663e+01 -2.500000e+01 5.277107e+00
      vertex   -1.670281e+01 -2.600000e+01 5.314684e+00
      vertex   -1.678663e+01 -2.600000e+01 5.277107e+00
    endloop
  endfacet
  facet normal 5.435676e-01 0.000000e+00 -8.393654e-01
    outer loop
      vertex   -1.678663e+01 -2.500000e+01 5.277107e+00
      vertex   -1.678663e+01 -2.600000e+01 5.277107e+00
      vertex   -1.686374e+01 -2.500000e+01 5.227176e+00
    endloop
  endfacet
  facet normal 5.435676e-01 0.000000e+00 -8.393654e-01
    outer loop
      vertex   -1.686374e+01 -2.500000e+01 5.227176e+00
      vertex   -1.678663e+01 -2.600000e+01 5.277107e+00
      vertex   -1.686374e+01 -2.600000e+01 5.227176e+00
    endloop
  endfacet
  facet normal 6.653257e-01 0.000000e+00 -7.465532e-01
    outer loop
      vertex   -1.686374e+01 -2.500000e+01 5.227176e+00
      vertex   -1.686374e+01 -2.600000e+01 5.227176e+00
      vertex   -1.693231e+01 -2.500000e+01 5.166060e+00
    endloop
  endfacet
  facet normal 6.653257e-01 0.000000e+00 -7.465532e-01
    outer loop
      vertex   -1.693231e+01 -2.500000e+01 5.166060e+00
      vertex   -1.686374e+01 -2.600000e+01 5.227176e+00
      vertex   -1.693231e+01 -2.600000e+01 5.166060e+00
    endloop
  endfacet
  facet normal 7.714892e-01 0.000000e+00 -6.362424e-01
    outer loop
      vertex   -1.693231e+01 -2.500000e+01 5.166060e+00
      vertex   -1.693231e+01 -2.600000e+01 5.166060e+00
      vertex   -1.699076e+01 -2.500000e+01 5.095191e+00
    endloop
  endfacet
  facet normal 7.714892e-01 0.000000e+00 -6.362424e-01
    outer loop
      vertex   -1.699076e+01 -2.500000e+01 5.095191e+00
      vertex   -1.693231e+01 -2.600000e+01 5.166060e+00
      vertex   -1.699076e+01 -2.600000e+01 5.095191e+00
    endloop
  endfacet
  facet normal 8.595696e-01 0.000000e+00 -5.110187e-01
    outer loop
      vertex   -1.699076e+01 -2.500000e+01 5.095191e+00
      vertex   -1.699076e+01 -2.600000e+01 5.095191e+00
      vertex   -1.703770e+01 -2.500000e+01 5.016232e+00
    endloop
  endfacet
  facet normal 8.595696e-01 -4.538758e-16 -5.110187e-01
    outer loop
      vertex   -1.703770e+01 -2.500000e+01 5.016232e+00
      vertex   -1.699076e+01 -2.600000e+01 5.095191e+00
      vertex   -1.703770e+01 -2.600000e+01 5.016232e+00
    endloop
  endfacet
  facet normal 9.275025e-01 -3.320163e-16 -3.738171e-01
    outer loop
      vertex   -1.703770e+01 -2.500000e+01 5.016232e+00
      vertex   -1.703770e+01 -2.600000e+01 5.016232e+00
      vertex   -1.707204e+01 -2.500000e+01 4.931032e+00
    endloop
  endfacet
  facet normal 9.275025e-01 0.000000e+00 -3.738171e-01
    outer loop
      vertex   -1.707204e+01 -2.500000e+01 4.931032e+00
      vertex   -1.703770e+01 -2.600000e+01 5.016232e+00
      vertex   -1.707204e+01 -2.600000e+01 4.931032e+00
    endloop
  endfacet
  facet normal 9.736954e-01 0.000000e+00 -2.278535e-01
    outer loop
      vertex   -1.707204e+01 -2.500000e+01 4.931032e+00
      vertex   -1.707204e+01 -2.600000e+01 4.931032e+00
      vertex   -1.709297e+01 -2.500000e+01 4.841590e+00
    endloop
  endfacet
  facet normal 9.736954e-01 0.000000e+00 -2.278535e-01
    outer loop
      vertex   -1.709297e+01 -2.500000e+01 4.841590e+00
      vertex   -1.707204e+01 -2.600000e+01 4.931032e+00
      vertex   -1.709297e+01 -2.600000e+01 4.841590e+00
    endloop
  endfacet
  facet normal 0.000000e+00 0.000000e+00 1.000000e+00
    outer loop
      vertex   1.750000e+01 -2.500000e+01 9.500000e+00
      vertex   -1.750000e+01 -2.500000e+01 9.500000e+00
      vertex   1.750000e+01 -2.600000e+01 9.500000e+00
    endloop
  endfacet
  facet normal 0.000000e+00 0.000000e+00 1.000000e+00
    outer loop
      vertex   1.750000e+01 -2.600000e+01 9.500000e+00
      vertex   -1.750000e+01 -2.500000e+01 9.500000e+00
      vertex   -1.750000e+01 -2.600000e+01 9.500000e+00
    endloop
  endfacet
  facet normal 1.000000e+00 0.000000e+00 3.739699e-16
    outer loop
      vertex   1.750000e+01 -2.500000e+01 0.000000e+00
      vertex   1.750000e+01 -2.500000e+01 9.500000e+00
      vertex   1.750000e+01 -2.600000e+01 0.000000e+00
    endloop
  endfacet
  facet normal 1.000000e+00 3.552714e-15 -0.000000e+00
    outer loop
      vertex   1.750000e+01 -2.600000e+01 0.000000e+00
      vertex   1.750000e+01 -2.500000e+01 9.500000e+00
      vertex   1.750000e+01 -2.600000e+01 9.500000e+00
    endloop
  endfacet
  facet normal 0.000000e+00 0.000000e+00 -1.000000e+00
    outer loop
      vertex   -1.750000e+01 -2.500000e+01 0.000000e+00
      vertex   1.750000e+01 -2.500000e+01 0.000000e+00
      vertex   -1.750000e+01 -2.600000e+01 0.000000e+00
    endloop
  endfacet
  facet normal 0.000000e+00 0.000000e+00 -1.000000e+00
    outer loop
      vertex   -1.750000e+01 -2.600000e+01 0.000000e+00
      vertex   1.750000e+01 -2.500000e+01 0.000000e+00
      vertex   1.750000e+01 -2.600000e+01 0.000000e+00
    endloop
  endfacet
  facet normal -1.000000e+00 -0.000000e+00 -0.000000e+00
    outer loop
      vertex   -1.750000e+01 -2.500000e+01 9.500000e+00
      vertex   -1.750000e+01 -2.500000e+01 0.000000e+00
      vertex   -1.750000e+01 -2.600000e+01 9.500000e+00
    endloop
  endfacet
  facet normal -1.000000e+00 0.000000e+00 0.000000e+00
    outer loop
      vertex   -1.750000e+01 -2.600000e+01 9.500000e+00
      vertex   -1.750000e+01 -2.500000e+01 0.000000e+00
      vertex   -1.750000e+01 -2.600000e+01 0.000000e+00
    endloop
  endfacet
  facet normal 0.000000e+00 -1.000000e+00 -0.000000e+00
    outer loop
      vertex   -2.100000e+00 -2.600000e+01 6.350000e+00
      vertex   -1.590176e+01 -2.600000e+01 4.704070e+00
      vertex   -2.100000e+00 -2.600000e+01 3.150000e+00
    endloop
  endfacet
  facet normal 0.000000e+00 -1.000000e+00 0.000000e+00
    outer loop
      vertex   -2.100000e+00 -2.600000e+01 3.150000e+00
      vertex   -1.590176e+01 -2.600000e+01 4.704070e+00
      vertex   -1.591578e+01 -2.600000e+01 4.613288e+00
    endloop
  endfacet
  facet normal 0.000000e+00 -1.000000e+00 0.000000e+00
    outer loop
      vertex   -2.100000e+00 -2.600000e+01 3.150000e+00
      vertex   -1.591578e+01 -2.600000e+01 4.613288e+00
      vertex   -1.594350e+01 -2.600000e+01 4.525710e+00
    endloop
  endfacet
  facet normal 0.000000e+00 -1.000000e+00 0.000000e+00
    outer loop
      vertex   2.100000e+00 -2.600000e+01 6.350000e+00
      vertex   -1.750000e+01 -2.600000e+01 9.500000e+00
      vertex   -2.100000e+00 -2.600000e+01 6.350000e+00
    endloop
  endfacet
  facet normal -0.000000e+00 -1.000000e+00 0.000000e+00
    outer loop
      vertex   -2.100000e+00 -2.600000e+01 6.350000e+00
      vertex   -1.750000e+01 -2.600000e+01 9.500000e+00
      vertex   -1.643119e+01 -2.600000e+01 5.346041e+00
    endloop
  endfacet
  facet normal 0.000000e+00 -1.000000e+00 0.000000e+00
    outer loop
      vertex   -2.100000e+00 -2.600000e+01 6.350000e+00
      vertex   -1.643119e+01 -2.600000e+01 5.346041e+00
      vertex   -1.634101e+01 -2.600000e+01 5.328552e+00
    endloop
  endfacet
  facet normal 0.000000e+00 -1.000000e+00 0.000000e+00
    outer loop
      vertex   2.100000e+00 -2.600000e+01 3.150000e+00
      vertex   1.590000e+01 -2.600000e+01 4.750000e+00
      vertex   2.100000e+00 -2.600000e+01 6.350000e+00
    endloop
  endfacet
  facet normal 0.000000e+00 -1.000000e+00 0.000000e+00
    outer loop
      vertex   2.100000e+00 -2.600000e+01 6.350000e+00
      vertex   1.590000e+01 -2.600000e+01 4.750000e+00
      vertex   1.590703e+01 -2.600000e+01 4.841590e+00
    endloop
  endfacet
  facet normal 0.000000e+00 -1.000000e+00 0.000000e+00
    outer loop
      vertex   2.100000e+00 -2.600000e+01 6.350000e+00
      vertex   1.590703e+01 -2.600000e+01 4.841590e+00
      vertex   1.592796e+01 -2.600000e+01 4.931032e+00
    endloop
  endfacet
  facet normal 0.000000e+00 -1.000000e+00 -0.000000e+00
    outer loop
      vertex   -2.100000e+00 -2.600000e+01 3.150000e+00
      vertex   -1.750000e+01 -2.600000e+01 0.000000e+00
      vertex   2.100000e+00 -2.600000e+01 3.150000e+00
    endloop
  endfacet
  facet normal 0.000000e+00 -1.000000e+00 -0.000000e+00
    outer loop
      vertex   2.100000e+00 -2.600000e+01 3.150000e+00
      vertex   -1.750000e+01 -2.600000e+01 0.000000e+00
      vertex   1.750000e+01 -2.600000e+01 0.000000e+00
    endloop
  endfacet
  facet normal 0.000000e+00 -1.000000e+00 0.000000e+00
    outer loop
      vertex   2.100000e+00 -2.600000e+01 3.150000e+00
      vertex   1.750000e+01 -2.600000e+01 0.000000e+00
      vertex   1.638577e+01 -2.600000e+01 4.160975e+00
    endloop
  endfacet
  facet normal 0.000000e+00 -1.000000e+00 0.000000e+00
    outer loop
      vertex   1.638577e+01 -2.600000e+01 4.160975e+00
      vertex   1.750000e+01 -2.600000e+01 0.000000e+00
      vertex   1.647702e+01 -2.600000e+01 4.150440e+00
    endloop
  endfacet
  facet normal 0.000000e+00 -1.000000e+00 0.000000e+00
    outer loop
      vertex   1.647702e+01 -2.600000e+01 4.150440e+00
      vertex   1.750000e+01 -2.600000e+01 0.000000e+00
      vertex   1.656881e+01 -2.600000e+01 4.153959e+00
    endloop
  endfacet
  facet normal 0.000000e+00 -1.000000e+00 0.000000e+00
    outer loop
      vertex   1.656881e+01 -2.600000e+01 4.153959e+00
      vertex   1.750000e+01 -2.600000e+01 0.000000e+00
      vertex   1.665899e+01 -2.600000e+01 4.171448e+00
    endloop
  endfacet
  facet normal 0.000000e+00 -1.000000e+00 0.000000e+00
    outer loop
      vertex   1.665899e+01 -2.600000e+01 4.171448e+00
      vertex   1.750000e+01 -2.600000e+01 0.000000e+00
      vertex   1.674544e+01 -2.600000e+01 4.202498e+00
    endloop
  endfacet
  facet normal 0.000000e+00 -1.000000e+00 0.000000e+00
    outer loop
      vertex   1.674544e+01 -2.600000e+01 4.202498e+00
      vertex   1.750000e+01 -2.600000e+01 0.000000e+00
      vertex   1.682614e+01 -2.600000e+01 4.246381e+00
    endloop
  endfacet
  facet normal 0.000000e+00 -1.000000e+00 0.000000e+00
    outer loop
      vertex   1.682614e+01 -2.600000e+01 4.246381e+00
      vertex   1.750000e+01 -2.600000e+01 0.000000e+00
      vertex   1.689920e+01 -2.600000e+01 4.302068e+00
    endloop
  endfacet
  facet normal 0.000000e+00 -1.000000e+00 0.000000e+00
    outer loop
      vertex   1.689920e+01 -2.600000e+01 4.302068e+00
      vertex   1.750000e+01 -2.600000e+01 0.000000e+00
      vertex   1.696289e+01 -2.600000e+01 4.368255e+00
    endloop
  endfacet
  facet normal 0.000000e+00 -1.000000e+00 0.000000e+00
    outer loop
      vertex   1.696289e+01 -2.600000e+01 4.368255e+00
      vertex   1.750000e+01 -2.600000e+01 0.000000e+00
      vertex   1.701574e+01 -2.600000e+01 4.443389e+00
    endloop
  endfacet
  facet normal 0.000000e+00 -1.000000e+00 0.000000e+00
    outer loop
      vertex   1.701574e+01 -2.600000e+01 4.443389e+00
      vertex   1.750000e+01 -2.600000e+01 0.000000e+00
      vertex   1.705650e+01 -2.600000e+01 4.525710e+00
    endloop
  endfacet
  facet normal 0.000000e+00 -1.000000e+00 0.000000e+00
    outer loop
      vertex   1.705650e+01 -2.600000e+01 4.525710e+00
      vertex   1.750000e+01 -2.600000e+01 0.000000e+00
      vertex   1.708422e+01 -2.600000e+01 4.613288e+00
    endloop
  endfacet
  facet normal 0.000000e+00 -1.000000e+00 0.000000e+00
    outer loop
      vertex   1.708422e+01 -2.600000e+01 4.613288e+00
      vertex   1.750000e+01 -2.600000e+01 0.000000e+00
      vertex   1.709824e+01 -2.600000e+01 4.704070e+00
    endloop
  endfacet
  facet normal 0.000000e+00 -1.000000e+00 0.000000e+00
    outer loop
      vertex   1.709824e+01 -2.600000e+01 4.704070e+00
      vertex   1.750000e+01 -2.600000e+01 0.000000e+00
      vertex   1.750000e+01 -2.600000e+01 9.500000e+00
    endloop
  endfacet
  facet normal 0.000000e+00 -1.000000e+00 0.000000e+00
    outer loop
      vertex   1.709824e+01 -2.600000e+01 4.704070e+00
      vertex   1.750000e+01 -2.600000e+01 9.500000e+00
      vertex   1.709824e+01 -2.600000e+01 4.795930e+00
    endloop
  endfacet
  facet normal 0.000000e+00 -1.000000e+00 0.000000e+00
    outer loop
      vertex   1.709824e+01 -2.600000e+01 4.795930e+00
      vertex   1.750000e+01 -2.600000e+01 9.500000e+00
      vertex   1.708422e+01 -2.600000e+01 4.886712e+00
    endloop
  endfacet
  facet normal 0.000000e+00 -1.000000e+00 0.000000e+00
    outer loop
      vertex   1.708422e+01 -2.600000e+01 4.886712e+00
      vertex   1.750000e+01 -2.600000e+01 9.500000e+00
      vertex   1.705650e+01 -2.600000e+01 4.974290e+00
    endloop
  endfacet
  facet normal 0.000000e+00 -1.000000e+00 0.000000e+00
    outer loop
      vertex   1.705650e+01 -2.600000e+01 4.974290e+00
      vertex   1.750000e+01 -2.600000e+01 9.500000e+00
      vertex   1.701574e+01 -2.600000e+01 5.056611e+00
    endloop
  endfacet
  facet normal 0.000000e+00 -1.000000e+00 0.000000e+00
    outer loop
      vertex   1.701574e+01 -2.600000e+01 5.056611e+00
      vertex   1.750000e+01 -2.600000e+01 9.500000e+00
      vertex   1.696289e+01 -2.600000e+01 5.131745e+00
    endloop
  endfacet
  facet normal 0.000000e+00 -1.000000e+00 0.000000e+00
    outer loop
      vertex   1.696289e+01 -2.600000e+01 5.131745e+00
      vertex   1.750000e+01 -2.600000e+01 9.500000e+00
      vertex   1.689920e+01 -2.600000e+01 5.197932e+00
    endloop
  endfacet
  facet normal 0.000000e+00 -1.000000e+00 0.000000e+00
    outer loop
      vertex   1.689920e+01 -2.600000e+01 5.197932e+00
      vertex   1.750000e+01 -2.600000e+01 9.500000e+00
      vertex   1.682614e+01 -2.600000e+01 5.253619e+00
    endloop
  endfacet
  facet normal 0.000000e+00 -1.000000e+00 0.000000e+00
    outer loop
      vertex   1.682614e+01 -2.600000e+01 5.253619e+00
      vertex   1.750000e+01 -2.600000e+01 9.500000e+00
      vertex   1.674544e+01 -2.600000e+01 5.297502e+00
    endloop
  endfacet
  facet normal 0.000000e+00 -1.000000e+00 0.000000e+00
    outer loop
      vertex   1.674544e+01 -2.600000e+01 5.297502e+00
      vertex   1.750000e+01 -2.600000e+01 9.500000e+00
      vertex   1.665899e+01 -2.600000e+01 5.328552e+00
    endloop
  endfacet
  facet normal 0.000000e+00 -1.000000e+00 0.000000e+00
    outer loop
      vertex   1.665899e+01 -2.600000e+01 5.328552e+00
      vertex   1.750000e+01 -2.600000e+01 9.500000e+00
      vertex   1.656881e+01 -2.600000e+01 5.346041e+00
    endloop
  endfacet
  facet normal 0.000000e+00 -1.000000e+00 0.000000e+00
    outer loop
      vertex   1.656881e+01 -2.600000e+01 5.346041e+00
      vertex   1.750000e+01 -2.600000e+01 9.500000e+00
      vertex   1.647702e+01 -2.600000e+01 5.349560e+00
    endloop
  endfacet
  facet normal -0.000000e+00 -1.000000e+00 0.000000e+00
    outer loop
      vertex   1.647702e+01 -2.600000e+01 5.349560e+00
      vertex   1.750000e+01 -2.600000e+01 9.500000e+00
      vertex   1.638577e+01 -2.600000e+01 5.339025e+00
    endloop
  endfacet
  facet normal 0.000000e+00 -1.000000e+00 0.000000e+00
    outer loop
      vertex   1.638577e+01 -2.600000e+01 5.339025e+00
      vertex   1.750000e+01 -2.600000e+01 9.500000e+00
      vertex   2.100000e+00 -2.600000e+01 6.350000e+00
    endloop
  endfacet
  facet normal -0.000000e+00 -1.000000e+00 0.000000e+00
    outer loop
      vertex   1.638577e+01 -2.600000e+01 5.339025e+00
      vertex   2.100000e+00 -2.600000e+01 6.350000e+00
      vertex   1.629719e+01 -2.600000e+01 5.314684e+00
    endloop
  endfacet
  facet normal -0.000000e+00 -1.000000e+00 0.000000e+00
    outer loop
      vertex   1.629719e+01 -2.600000e+01 5.314684e+00
      vertex   2.100000e+00 -2.600000e+01 6.350000e+00
      vertex   1.621337e+01 -2.600000e+01 5.277107e+00
    endloop
  endfacet
  facet normal -0.000000e+00 -1.000000e+00 0.000000e+00
    outer loop
      vertex   1.621337e+01 -2.600000e+01 5.277107e+00
      vertex   2.100000e+00 -2.600000e+01 6.350000e+00
      vertex   1.613626e+01 -2.600000e+01 5.227176e+00
    endloop
  endfacet
  facet normal -0.000000e+00 -1.000000e+00 0.000000e+00
    outer loop
      vertex   1.613626e+01 -2.600000e+01 5.227176e+00
      vertex   2.100000e+00 -2.600000e+01 6.350000e+00
      vertex   1.606769e+01 -2.600000e+01 5.166060e+00
    endloop
  endfacet
  facet normal -0.000000e+00 -1.000000e+00 0.000000e+00
    outer loop
      vertex   1.606769e+01 -2.600000e+01 5.166060e+00
      vertex   2.100000e+00 -2.600000e+01 6.350000e+00
      vertex   1.600924e+01 -2.600000e+01 5.095191e+00
    endloop
  endfacet
  facet normal -0.000000e+00 -1.000000e+00 0.000000e+00
    outer loop
      vertex   1.600924e+01 -2.600000e+01 5.095191e+00
      vertex   2.100000e+00 -2.600000e+01 6.350000e+00
      vertex   1.596230e+01 -2.600000e+01 5.016232e+00
    endloop
  endfacet
  facet normal -0.000000e+00 -1.000000e+00 0.000000e+00
    outer loop
      vertex   1.596230e+01 -2.600000e+01 5.016232e+00
      vertex   2.100000e+00 -2.600000e+01 6.350000e+00
      vertex   1.592796e+01 -2.600000e+01 4.931032e+00
    endloop
  endfacet
  facet normal -0.000000e+00 -1.000000e+00 0.000000e+00
    outer loop
      vertex   1.638577e+01 -2.600000e+01 4.160975e+00
      vertex   1.629719e+01 -2.600000e+01 4.185316e+00
      vertex   2.100000e+00 -2.600000e+01 3.150000e+00
    endloop
  endfacet
  facet normal 0.000000e+00 -1.000000e+00 0.000000e+00
    outer loop
      vertex   2.100000e+00 -2.600000e+01 3.150000e+00
      vertex   1.629719e+01 -2.600000e+01 4.185316e+00
      vertex   1.621337e+01 -2.600000e+01 4.222893e+00
    endloop
  endfacet
  facet normal 0.000000e+00 -1.000000e+00 0.000000e+00
    outer loop
      vertex   2.100000e+00 -2.600000e+01 3.150000e+00
      vertex   1.621337e+01 -2.600000e+01 4.222893e+00
      vertex   1.613626e+01 -2.600000e+01 4.272824e+00
    endloop
  endfacet
  facet normal -0.000000e+00 -1.000000e+00 0.000000e+00
    outer loop
      vertex   1.613626e+01 -2.600000e+01 4.272824e+00
      vertex   1.606769e+01 -2.600000e+01 4.333940e+00
      vertex   2.100000e+00 -2.600000e+01 3.150000e+00
    endloop
  endfacet
  facet normal 0.000000e+00 -1.000000e+00 0.000000e+00
    outer loop
      vertex   2.100000e+00 -2.600000e+01 3.150000e+00
      vertex   1.606769e+01 -2.600000e+01 4.333940e+00
      vertex   1.600924e+01 -2.600000e+01 4.404809e+00
    endloop
  endfacet
  facet normal 0.000000e+00 -1.000000e+00 0.000000e+00
    outer loop
      vertex   2.100000e+00 -2.600000e+01 3.150000e+00
      vertex   1.600924e+01 -2.600000e+01 4.404809e+00
      vertex   1.596230e+01 -2.600000e+01 4.483768e+00
    endloop
  endfacet
  facet normal -0.000000e+00 -1.000000e+00 0.000000e+00
    outer loop
      vertex   1.596230e+01 -2.600000e+01 4.483768e+00
      vertex   1.592796e+01 -2.600000e+01 4.568968e+00
      vertex   2.100000e+00 -2.600000e+01 3.150000e+00
    endloop
  endfacet
  facet normal 0.000000e+00 -1.000000e+00 0.000000e+00
    outer loop
      vertex   2.100000e+00 -2.600000e+01 3.150000e+00
      vertex   1.592796e+01 -2.600000e+01 4.568968e+00
      vertex   1.590703e+01 -2.600000e+01 4.658410e+00
    endloop
  endfacet
  facet normal 0.000000e+00 -1.000000e+00 0.000000e+00
    outer loop
      vertex   2.100000e+00 -2.600000e+01 3.150000e+00
      vertex   1.590703e+01 -2.600000e+01 4.658410e+00
      vertex   1.590000e+01 -2.600000e+01 4.750000e+00
    endloop
  endfacet
  facet normal -0.000000e+00 -1.000000e+00 0.000000e+00
    outer loop
      vertex   -1.709297e+01 -2.600000e+01 4.841590e+00
      vertex   -1.750000e+01 -2.600000e+01 9.500000e+00
      vertex   -1.710000e+01 -2.600000e+01 4.750000e+00
    endloop
  endfacet
  facet normal -0.000000e+00 -1.000000e+00 0.000000e+00
    outer loop
      vertex   -1.710000e+01 -2.600000e+01 4.750000e+00
      vertex   -1.750000e+01 -2.600000e+01 9.500000e+00
      vertex   -1.750000e+01 -2.600000e+01 0.000000e+00
    endloop
  endfacet
  facet normal 0.000000e+00 -1.000000e+00 -0.000000e+00
    outer loop
      vertex   -1.710000e+01 -2.600000e+01 4.750000e+00
      vertex   -1.750000e+01 -2.600000e+01 0.000000e+00
      vertex   -1.709297e+01 -2.600000e+01 4.658410e+00
    endloop
  endfacet
  facet normal 0.000000e+00 -1.000000e+00 -0.000000e+00
    outer loop
      vertex   -1.709297e+01 -2.600000e+01 4.658410e+00
      vertex   -1.750000e+01 -2.600000e+01 0.000000e+00
      vertex   -1.707204e+01 -2.600000e+01 4.568968e+00
    endloop
  endfacet
  facet normal 0.000000e+00 -1.000000e+00 -0.000000e+00
    outer loop
      vertex   -1.707204e+01 -2.600000e+01 4.568968e+00
      vertex   -1.750000e+01 -2.600000e+01 0.000000e+00
      vertex   -1.703770e+01 -2.600000e+01 4.483768e+00
    endloop
  endfacet
  facet normal 0.000000e+00 -1.000000e+00 -0.000000e+00
    outer loop
      vertex   -1.703770e+01 -2.600000e+01 4.483768e+00
      vertex   -1.750000e+01 -2.600000e+01 0.000000e+00
      vertex   -1.699076e+01 -2.600000e+01 4.404809e+00
    endloop
  endfacet
  facet normal 0.000000e+00 -1.000000e+00 -0.000000e+00
    outer loop
      vertex   -1.699076e+01 -2.600000e+01 4.404809e+00
      vertex   -1.750000e+01 -2.600000e+01 0.000000e+00
      vertex   -1.693231e+01 -2.600000e+01 4.333940e+00
    endloop
  endfacet
  facet normal 0.000000e+00 -1.000000e+00 -0.000000e+00
    outer loop
      vertex   -1.693231e+01 -2.600000e+01 4.333940e+00
      vertex   -1.750000e+01 -2.600000e+01 0.000000e+00
      vertex   -1.686374e+01 -2.600000e+01 4.272824e+00
    endloop
  endfacet
  facet normal 0.000000e+00 -1.000000e+00 -0.000000e+00
    outer loop
      vertex   -1.686374e+01 -2.600000e+01 4.272824e+00
      vertex   -1.750000e+01 -2.600000e+01 0.000000e+00
      vertex   -1.678663e+01 -2.600000e+01 4.222893e+00
    endloop
  endfacet
  facet normal 0.000000e+00 -1.000000e+00 -0.000000e+00
    outer loop
      vertex   -1.678663e+01 -2.600000e+01 4.222893e+00
      vertex   -1.750000e+01 -2.600000e+01 0.000000e+00
      vertex   -1.670281e+01 -2.600000e+01 4.185316e+00
    endloop
  endfacet
  facet normal 0.000000e+00 -1.000000e+00 -0.000000e+00
    outer loop
      vertex   -1.670281e+01 -2.600000e+01 4.185316e+00
      vertex   -1.750000e+01 -2.600000e+01 0.000000e+00
      vertex   -1.661423e+01 -2.600000e+01 4.160975e+00
    endloop
  endfacet
  facet normal 0.000000e+00 -1.000000e+00 -0.000000e+00
    outer loop
      vertex   -1.661423e+01 -2.600000e+01 4.160975e+00
      vertex   -1.750000e+01 -2.600000e+01 0.000000e+00
      vertex   -1.652298e+01 -2.600000e+01 4.150440e+00
    endloop
  endfacet
  facet normal 0.000000e+00 -1.000000e+00 -0.000000e+00
    outer loop
      vertex   -1.652298e+01 -2.600000e+01 4.150440e+00
      vertex   -1.750000e+01 -2.600000e+01 0.000000e+00
      vertex   -1.643119e+01 -2.600000e+01 4.153959e+00
    endloop
  endfacet
  facet normal 0.000000e+00 -1.000000e+00 -0.000000e+00
    outer loop
      vertex   -1.643119e+01 -2.600000e+01 4.153959e+00
      vertex   -1.750000e+01 -2.600000e+01 0.000000e+00
      vertex   -2.100000e+00 -2.600000e+01 3.150000e+00
    endloop
  endfacet
  facet normal 0.000000e+00 -1.000000e+00 0.000000e+00
    outer loop
      vertex   -1.643119e+01 -2.600000e+01 4.153959e+00
      vertex   -2.100000e+00 -2.600000e+01 3.150000e+00
      vertex   -1.634101e+01 -2.600000e+01 4.171448e+00
    endloop
  endfacet
  facet normal 0.000000e+00 -1.000000e+00 0.000000e+00
    outer loop
      vertex   -1.634101e+01 -2.600000e+01 4.171448e+00
      vertex   -2.100000e+00 -2.600000e+01 3.150000e+00
      vertex   -1.625456e+01 -2.600000e+01 4.202498e+00
    endloop
  endfacet
  facet normal 0.000000e+00 -1.000000e+00 0.000000e+00
    outer loop
      vertex   -1.625456e+01 -2.600000e+01 4.202498e+00
      vertex   -2.100000e+00 -2.600000e+01 3.150000e+00
      vertex   -1.617386e+01 -2.600000e+01 4.246381e+00
    endloop
  endfacet
  facet normal 0.000000e+00 -1.000000e+00 0.000000e+00
    outer loop
      vertex   -1.617386e+01 -2.600000e+01 4.246381e+00
      vertex   -2.100000e+00 -2.600000e+01 3.150000e+00
      vertex   -1.610080e+01 -2.600000e+01 4.302068e+00
    endloop
  endfacet
  facet normal 0.000000e+00 -1.000000e+00 0.000000e+00
    outer loop
      vertex   -1.610080e+01 -2.600000e+01 4.302068e+00
      vertex   -2.100000e+00 -2.600000e+01 3.150000e+00
      vertex   -1.603711e+01 -2.600000e+01 4.368255e+00
    endloop
  endfacet
  facet normal 0.000000e+00 -1.000000e+00 0.000000e+00
    outer loop
      vertex   -1.603711e+01 -2.600000e+01 4.368255e+00
      vertex   -2.100000e+00 -2.600000e+01 3.150000e+00
      vertex   -1.598426e+01 -2.600000e+01 4.443389e+00
    endloop
  endfacet
  facet normal 0.000000e+00 -1.000000e+00 0.000000e+00
    outer loop
      vertex   -1.598426e+01 -2.600000e+01 4.443389e+00
      vertex   -2.100000e+00 -2.600000e+01 3.150000e+00
      vertex   -1.594350e+01 -2.600000e+01 4.525710e+00
    endloop
  endfacet
  facet normal 0.000000e+00 -1.000000e+00 0.000000e+00
    outer loop
      vertex   -1.709297e+01 -2.600000e+01 4.841590e+00
      vertex   -1.707204e+01 -2.600000e+01 4.931032e+00
      vertex   -1.750000e+01 -2.600000e+01 9.500000e+00
    endloop
  endfacet
  facet normal 0.000000e+00 -1.000000e+00 0.000000e+00
    outer loop
      vertex   -1.750000e+01 -2.600000e+01 9.500000e+00
      vertex   -1.707204e+01 -2.600000e+01 4.931032e+00
      vertex   -1.703770e+01 -2.600000e+01 5.016232e+00
    endloop
  endfacet
  facet normal 0.000000e+00 -1.000000e+00 0.000000e+00
    outer loop
      vertex   -1.750000e+01 -2.600000e+01 9.500000e+00
      vertex   -1.703770e+01 -2.600000e+01 5.016232e+00
      vertex   -1.699076e+01 -2.600000e+01 5.095191e+00
    endloop
  endfacet
  facet normal 0.000000e+00 -1.000000e+00 0.000000e+00
    outer loop
      vertex   -1.699076e+01 -2.600000e+01 5.095191e+00
      vertex   -1.693231e+01 -2.600000e+01 5.166060e+00
      vertex   -1.750000e+01 -2.600000e+01 9.500000e+00
    endloop
  endfacet
  facet normal 0.000000e+00 -1.000000e+00 0.000000e+00
    outer loop
      vertex   -1.750000e+01 -2.600000e+01 9.500000e+00
      vertex   -1.693231e+01 -2.600000e+01 5.166060e+00
      vertex   -1.686374e+01 -2.600000e+01 5.227176e+00
    endloop
  endfacet
  facet normal 0.000000e+00 -1.000000e+00 0.000000e+00
    outer loop
      vertex   -1.750000e+01 -2.600000e+01 9.500000e+00
      vertex   -1.686374e+01 -2.600000e+01 5.227176e+00
      vertex   -1.678663e+01 -2.600000e+01 5.277107e+00
    endloop
  endfacet
  facet normal 0.000000e+00 -1.000000e+00 0.000000e+00
    outer loop
      vertex   -1.678663e+01 -2.600000e+01 5.277107e+00
      vertex   -1.670281e+01 -2.600000e+01 5.314684e+00
      vertex   -1.750000e+01 -2.600000e+01 9.500000e+00
    endloop
  endfacet
  facet normal 0.000000e+00 -1.000000e+00 0.000000e+00
    outer loop
      vertex   -1.750000e+01 -2.600000e+01 9.500000e+00
      vertex   -1.670281e+01 -2.600000e+01 5.314684e+00
      vertex   -1.661423e+01 -2.600000e+01 5.339025e+00
    endloop
  endfacet
  facet normal 0.000000e+00 -1.000000e+00 0.000000e+00
    outer loop
      vertex   -1.750000e+01 -2.600000e+01 9.500000e+00
      vertex   -1.661423e+01 -2.600000e+01 5.339025e+00
      vertex   -1.652298e+01 -2.600000e+01 5.349560e+00
    endloop
  endfacet
  facet normal 0.000000e+00 -1.000000e+00 0.000000e+00
    outer loop
      vertex   -1.652298e+01 -2.600000e+01 5.349560e+00
      vertex   -1.643119e+01 -2.600000e+01 5.346041e+00
      vertex   -1.750000e+01 -2.600000e+01 9.500000e+00
    endloop
  endfacet
  facet normal 0.000000e+00 -1.000000e+00 0.000000e+00
    outer loop
      vertex   -1.634101e+01 -2.600000e+01 5.328552e+00
      vertex   -1.625456e+01 -2.600000e+01 5.297502e+00
      vertex   -2.100000e+00 -2.600000e+01 6.350000e+00
    endloop
  endfacet
  facet normal 0.000000e+00 -1.000000e+00 0.000000e+00
    outer loop
      vertex   -2.100000e+00 -2.600000e+01 6.350000e+00
      vertex   -1.625456e+01 -2.600000e+01 5.297502e+00
      vertex   -1.617386e+01 -2.600000e+01 5.253619e+00
    endloop
  endfacet
  facet normal 0.000000e+00 -1.000000e+00 0.000000e+00
    outer loop
      vertex   -2.100000e+00 -2.600000e+01 6.350000e+00
      vertex   -1.617386e+01 -2.600000e+01 5.253619e+00
      vertex   -1.610080e+01 -2.600000e+01 5.197932e+00
    endloop
  endfacet
  facet normal 0.000000e+00 -1.000000e+00 0.000000e+00
    outer loop
      vertex   -1.610080e+01 -2.600000e+01 5.197932e+00
      vertex   -1.603711e+01 -2.600000e+01 5.131745e+00
      vertex   -2.100000e+00 -2.600000e+01 6.350000e+00
    endloop
  endfacet
  facet normal 0.000000e+00 -1.000000e+00 0.000000e+00
    outer loop
      vertex   -2.100000e+00 -2.600000e+01 6.350000e+00
      vertex   -1.603711e+01 -2.600000e+01 5.131745e+00
      vertex   -1.598426e+01 -2.600000e+01 5.056611e+00
    endloop
  endfacet
  facet normal 0.000000e+00 -1.000000e+00 0.000000e+00
    outer loop
      vertex   -2.100000e+00 -2.600000e+01 6.350000e+00
      vertex   -1.598426e+01 -2.600000e+01 5.056611e+00
      vertex   -1.594350e+01 -2.600000e+01 4.974290e+00
    endloop
  endfacet
  facet normal 0.000000e+00 -1.000000e+00 0.000000e+00
    outer loop
      vertex   -1.594350e+01 -2.600000e+01 4.974290e+00
      vertex   -1.591578e+01 -2.600000e+01 4.886712e+00
      vertex   -2.100000e+00 -2.600000e+01 6.350000e+00
    endloop
  endfacet
  facet normal 0.000000e+00 -1.000000e+00 0.000000e+00
    outer loop
      vertex   -2.100000e+00 -2.600000e+01 6.350000e+00
      vertex   -1.591578e+01 -2.600000e+01 4.886712e+00
      vertex   -1.590176e+01 -2.600000e+01 4.795930e+00
    endloop
  endfacet
  facet normal 0.000000e+00 -1.000000e+00 0.000000e+00
    outer loop
      vertex   -2.100000e+00 -2.600000e+01 6.350000e+00
      vertex   -1.590176e+01 -2.600000e+01 4.795930e+00
      vertex   -1.590176e+01 -2.600000e+01 4.704070e+00
    endloop
  endfacet
  facet normal -0.000000e+00 -1.000000e+00 0.000000e+00
    outer loop
      vertex   1.750000e+01 -2.600000e+01 9.500000e+00
      vertex   -1.750000e+01 -2.600000e+01 9.500000e+00
      vertex   2.100000e+00 -2.600000e+01 6.350000e+00
    endloop
  endfacet
  facet normal 0.000000e+00 1.000000e+00 -0.000000e+00
    outer loop
      vertex   -2.100000e+00 -2.500000e+01 3.150000e+00
      vertex   -1.590176e+01 -2.500000e+01 4.795930e+00
      vertex   -2.100000e+00 -2.500000e+01 6.350000e+00
    endloop
  endfacet
  facet normal 0.000000e+00 1.000000e+00 0.000000e+00
    outer loop
      vertex   -2.100000e+00 -2.500000e+01 6.350000e+00
      vertex   -1.590176e+01 -2.500000e+01 4.795930e+00
      vertex   -1.591578e+01 -2.500000e+01 4.886712e+00
    endloop
  endfacet
  facet normal 0.000000e+00 1.000000e+00 0.000000e+00
    outer loop
      vertex   -2.100000e+00 -2.500000e+01 6.350000e+00
      vertex   -1.591578e+01 -2.500000e+01 4.886712e+00
      vertex   -1.594350e+01 -2.500000e+01 4.974290e+00
    endloop
  endfacet
  facet normal 0.000000e+00 1.000000e+00 0.000000e+00
    outer loop
      vertex   2.100000e+00 -2.500000e+01 3.150000e+00
      vertex   -1.750000e+01 -2.500000e+01 0.000000e+00
      vertex   -2.100000e+00 -2.500000e+01 3.150000e+00
    endloop
  endfacet
  facet normal 0.000000e+00 1.000000e+00 0.000000e+00
    outer loop
      vertex   -2.100000e+00 -2.500000e+01 3.150000e+00
      vertex   -1.750000e+01 -2.500000e+01 0.000000e+00
      vertex   -1.643119e+01 -2.500000e+01 4.153959e+00
    endloop
  endfacet
  facet normal 0.000000e+00 1.000000e+00 0.000000e+00
    outer loop
      vertex   -2.100000e+00 -2.500000e+01 3.150000e+00
      vertex   -1.643119e+01 -2.500000e+01 4.153959e+00
      vertex   -1.634101e+01 -2.500000e+01 4.171448e+00
    endloop
  endfacet
  facet normal 0.000000e+00 1.000000e+00 0.000000e+00
    outer loop
      vertex   2.100000e+00 -2.500000e+01 6.350000e+00
      vertex   1.590000e+01 -2.500000e+01 4.750000e+00
      vertex   2.100000e+00 -2.500000e+01 3.150000e+00
    endloop
  endfacet
  facet normal 0.000000e+00 1.000000e+00 0.000000e+00
    outer loop
      vertex   2.100000e+00 -2.500000e+01 3.150000e+00
      vertex   1.590000e+01 -2.500000e+01 4.750000e+00
      vertex   1.590703e+01 -2.500000e+01 4.658410e+00
    endloop
  endfacet
  facet normal 0.000000e+00 1.000000e+00 0.000000e+00
    outer loop
      vertex   2.100000e+00 -2.500000e+01 3.150000e+00
      vertex   1.590703e+01 -2.500000e+01 4.658410e+00
      vertex   1.592796e+01 -2.500000e+01 4.568968e+00
    endloop
  endfacet
  facet normal 0.000000e+00 1.000000e+00 0.000000e+00
    outer loop
      vertex   -2.100000e+00 -2.500000e+01 6.350000e+00
      vertex   1.750000e+01 -2.500000e+01 9.500000e+00
      vertex   2.100000e+00 -2.500000e+01 6.350000e+00
    endloop
  endfacet
  facet normal -0.000000e+00 1.000000e+00 0.000000e+00
    outer loop
      vertex   2.100000e+00 -2.500000e+01 6.350000e+00
      vertex   1.750000e+01 -2.500000e+01 9.500000e+00
      vertex   1.638577e+01 -2.500000e+01 5.339025e+00
    endloop
  endfacet
  facet normal 0.000000e+00 1.000000e+00 0.000000e+00
    outer loop
      vertex   2.100000e+00 -2.500000e+01 6.350000e+00
      vertex   1.638577e+01 -2.500000e+01 5.339025e+00
      vertex   1.629719e+01 -2.500000e+01 5.314684e+00
    endloop
  endfacet
  facet normal 0.000000e+00 1.000000e+00 0.000000e+00
    outer loop
      vertex   1.592796e+01 -2.500000e+01 4.568968e+00
      vertex   1.596230e+01 -2.500000e+01 4.483768e+00
      vertex   2.100000e+00 -2.500000e+01 3.150000e+00
    endloop
  endfacet
  facet normal 0.000000e+00 1.000000e+00 0.000000e+00
    outer loop
      vertex   2.100000e+00 -2.500000e+01 3.150000e+00
      vertex   1.596230e+01 -2.500000e+01 4.483768e+00
      vertex   1.600924e+01 -2.500000e+01 4.404809e+00
    endloop
  endfacet
  facet normal 0.000000e+00 1.000000e+00 0.000000e+00
    outer loop
      vertex   2.100000e+00 -2.500000e+01 3.150000e+00
      vertex   1.600924e+01 -2.500000e+01 4.404809e+00
      vertex   1.606769e+01 -2.500000e+01 4.333940e+00
    endloop
  endfacet
  facet normal 0.000000e+00 1.000000e+00 0.000000e+00
    outer loop
      vertex   1.606769e+01 -2.500000e+01 4.333940e+00
      vertex   1.613626e+01 -2.500000e+01 4.272824e+00
      vertex   2.100000e+00 -2.500000e+01 3.150000e+00
    endloop
  endfacet
  facet normal 0.000000e+00 1.000000e+00 0.000000e+00
    outer loop
      vertex   2.100000e+00 -2.500000e+01 3.150000e+00
      vertex   1.613626e+01 -2.500000e+01 4.272824e+00
      vertex   1.621337e+01 -2.500000e+01 4.222893e+00
    endloop
  endfacet
  facet normal 0.000000e+00 1.000000e+00 0.000000e+00
    outer loop
      vertex   2.100000e+00 -2.500000e+01 3.150000e+00
      vertex   1.621337e+01 -2.500000e+01 4.222893e+00
      vertex   1.629719e+01 -2.500000e+01 4.185316e+00
    endloop
  endfacet
  facet normal 0.000000e+00 1.000000e+00 0.000000e+00
    outer loop
      vertex   1.629719e+01 -2.500000e+01 4.185316e+00
      vertex   1.638577e+01 -2.500000e+01 4.160975e+00
      vertex   2.100000e+00 -2.500000e+01 3.150000e+00
    endloop
  endfacet
  facet normal -0.000000e+00 1.000000e+00 0.000000e+00
    outer loop
      vertex   2.100000e+00 -2.500000e+01 3.150000e+00
      vertex   1.638577e+01 -2.500000e+01 4.160975e+00
      vertex   1.750000e+01 -2.500000e+01 0.000000e+00
    endloop
  endfacet
  facet normal 0.000000e+00 1.000000e+00 0.000000e+00
    outer loop
      vertex   2.100000e+00 -2.500000e+01 3.150000e+00
      vertex   1.750000e+01 -2.500000e+01 0.000000e+00
      vertex   -1.750000e+01 -2.500000e+01 0.000000e+00
    endloop
  endfacet
  facet normal 0.000000e+00 1.000000e+00 0.000000e+00
    outer loop
      vertex   1.638577e+01 -2.500000e+01 4.160975e+00
      vertex   1.647702e+01 -2.500000e+01 4.150440e+00
      vertex   1.750000e+01 -2.500000e+01 0.000000e+00
    endloop
  endfacet
  facet normal 0.000000e+00 1.000000e+00 0.000000e+00
    outer loop
      vertex   1.750000e+01 -2.500000e+01 0.000000e+00
      vertex   1.647702e+01 -2.500000e+01 4.150440e+00
      vertex   1.656881e+01 -2.500000e+01 4.153959e+00
    endloop
  endfacet
  facet normal 0.000000e+00 1.000000e+00 0.000000e+00
    outer loop
      vertex   1.750000e+01 -2.500000e+01 0.000000e+00
      vertex   1.656881e+01 -2.500000e+01 4.153959e+00
      vertex   1.665899e+01 -2.500000e+01 4.171448e+00
    endloop
  endfacet
  facet normal -0.000000e+00 1.000000e+00 0.000000e+00
    outer loop
      vertex   1.665899e+01 -2.500000e+01 4.171448e+00
      vertex   1.674544e+01 -2.500000e+01 4.202498e+00
      vertex   1.750000e+01 -2.500000e+01 0.000000e+00
    endloop
  endfacet
  facet normal 0.000000e+00 1.000000e+00 0.000000e+00
    outer loop
      vertex   1.750000e+01 -2.500000e+01 0.000000e+00
      vertex   1.674544e+01 -2.500000e+01 4.202498e+00
      vertex   1.682614e+01 -2.500000e+01 4.246381e+00
    endloop
  endfacet
  facet normal 0.000000e+00 1.000000e+00 0.000000e+00
    outer loop
      vertex   1.750000e+01 -2.500000e+01 0.000000e+00
      vertex   1.682614e+01 -2.500000e+01 4.246381e+00
      vertex   1.689920e+01 -2.500000e+01 4.302068e+00
    endloop
  endfacet
  facet normal -0.000000e+00 1.000000e+00 0.000000e+00
    outer loop
      vertex   1.689920e+01 -2.500000e+01 4.302068e+00
      vertex   1.696289e+01 -2.500000e+01 4.368255e+00
      vertex   1.750000e+01 -2.500000e+01 0.000000e+00
    endloop
  endfacet
  facet normal 0.000000e+00 1.000000e+00 0.000000e+00
    outer loop
      vertex   1.750000e+01 -2.500000e+01 0.000000e+00
      vertex   1.696289e+01 -2.500000e+01 4.368255e+00
      vertex   1.701574e+01 -2.500000e+01 4.443389e+00
    endloop
  endfacet
  facet normal 0.000000e+00 1.000000e+00 0.000000e+00
    outer loop
      vertex   1.750000e+01 -2.500000e+01 0.000000e+00
      vertex   1.701574e+01 -2.500000e+01 4.443389e+00
      vertex   1.705650e+01 -2.500000e+01 4.525710e+00
    endloop
  endfacet
  facet normal -0.000000e+00 1.000000e+00 0.000000e+00
    outer loop
      vertex   1.705650e+01 -2.500000e+01 4.525710e+00
      vertex   1.708422e+01 -2.500000e+01 4.613288e+00
      vertex   1.750000e+01 -2.500000e+01 0.000000e+00
    endloop
  endfacet
  facet normal 0.000000e+00 1.000000e+00 0.000000e+00
    outer loop
      vertex   1.750000e+01 -2.500000e+01 0.000000e+00
      vertex   1.708422e+01 -2.500000e+01 4.613288e+00
      vertex   1.709824e+01 -2.500000e+01 4.704070e+00
    endloop
  endfacet
  facet normal 0.000000e+00 1.000000e+00 0.000000e+00
    outer loop
      vertex   1.750000e+01 -2.500000e+01 0.000000e+00
      vertex   1.709824e+01 -2.500000e+01 4.704070e+00
      vertex   1.709824e+01 -2.500000e+01 4.795930e+00
    endloop
  endfacet
  facet normal 0.000000e+00 1.000000e+00 0.000000e+00
    outer loop
      vertex   1.750000e+01 -2.500000e+01 0.000000e+00
      vertex   1.709824e+01 -2.500000e+01 4.795930e+00
      vertex   1.750000e+01 -2.500000e+01 9.500000e+00
    endloop
  endfacet
  facet normal 0.000000e+00 1.000000e+00 0.000000e+00
    outer loop
      vertex   1.750000e+01 -2.500000e+01 9.500000e+00
      vertex   1.709824e+01 -2.500000e+01 4.795930e+00
      vertex   1.708422e+01 -2.500000e+01 4.886712e+00
    endloop
  endfacet
  facet normal 0.000000e+00 1.000000e+00 0.000000e+00
    outer loop
      vertex   1.750000e+01 -2.500000e+01 9.500000e+00
      vertex   1.708422e+01 -2.500000e+01 4.886712e+00
      vertex   1.705650e+01 -2.500000e+01 4.974290e+00
    endloop
  endfacet
  facet normal 0.000000e+00 1.000000e+00 -0.000000e+00
    outer loop
      vertex   1.705650e+01 -2.500000e+01 4.974290e+00
      vertex   1.701574e+01 -2.500000e+01 5.056611e+00
      vertex   1.750000e+01 -2.500000e+01 9.500000e+00
    endloop
  endfacet
  facet normal 0.000000e+00 1.000000e+00 0.000000e+00
    outer loop
      vertex   1.750000e+01 -2.500000e+01 9.500000e+00
      vertex   1.701574e+01 -2.500000e+01 5.056611e+00
      vertex   1.696289e+01 -2.500000e+01 5.131745e+00
    endloop
  endfacet
  facet normal 0.000000e+00 1.000000e+00 0.000000e+00
    outer loop
      vertex   1.750000e+01 -2.500000e+01 9.500000e+00
      vertex   1.696289e+01 -2.500000e+01 5.131745e+00
      vertex   1.689920e+01 -2.500000e+01 5.197932e+00
    endloop
  endfacet
  facet normal 0.000000e+00 1.000000e+00 -0.000000e+00
    outer loop
      vertex   1.689920e+01 -2.500000e+01 5.197932e+00
      vertex   1.682614e+01 -2.500000e+01 5.253619e+00
      vertex   1.750000e+01 -2.500000e+01 9.500000e+00
    endloop
  endfacet
  facet normal 0.000000e+00 1.000000e+00 0.000000e+00
    outer loop
      vertex   1.750000e+01 -2.500000e+01 9.500000e+00
      vertex   1.682614e+01 -2.500000e+01 5.253619e+00
      vertex   1.674544e+01 -2.500000e+01 5.297502e+00
    endloop
  endfacet
  facet normal 0.000000e+00 1.000000e+00 0.000000e+00
    outer loop
      vertex   1.750000e+01 -2.500000e+01 9.500000e+00
      vertex   1.674544e+01 -2.500000e+01 5.297502e+00
      vertex   1.665899e+01 -2.500000e+01 5.328552e+00
    endloop
  endfacet
  facet normal 0.000000e+00 1.000000e+00 -0.000000e+00
    outer loop
      vertex   1.665899e+01 -2.500000e+01 5.328552e+00
      vertex   1.656881e+01 -2.500000e+01 5.346041e+00
      vertex   1.750000e+01 -2.500000e+01 9.500000e+00
    endloop
  endfacet
  facet normal 0.000000e+00 1.000000e+00 0.000000e+00
    outer loop
      vertex   1.750000e+01 -2.500000e+01 9.500000e+00
      vertex   1.656881e+01 -2.500000e+01 5.346041e+00
      vertex   1.647702e+01 -2.500000e+01 5.349560e+00
    endloop
  endfacet
  facet normal 0.000000e+00 1.000000e+00 0.000000e+00
    outer loop
      vertex   1.750000e+01 -2.500000e+01 9.500000e+00
      vertex   1.647702e+01 -2.500000e+01 5.349560e+00
      vertex   1.638577e+01 -2.500000e+01 5.339025e+00
    endloop
  endfacet
  facet normal 0.000000e+00 1.000000e+00 0.000000e+00
    outer loop
      vertex   1.629719e+01 -2.500000e+01 5.314684e+00
      vertex   1.621337e+01 -2.500000e+01 5.277107e+00
      vertex   2.100000e+00 -2.500000e+01 6.350000e+00
    endloop
  endfacet
  facet normal 0.000000e+00 1.000000e+00 0.000000e+00
    outer loop
      vertex   2.100000e+00 -2.500000e+01 6.350000e+00
      vertex   1.621337e+01 -2.500000e+01 5.277107e+00
      vertex   1.613626e+01 -2.500000e+01 5.227176e+00
    endloop
  endfacet
  facet normal 0.000000e+00 1.000000e+00 0.000000e+00
    outer loop
      vertex   2.100000e+00 -2.500000e+01 6.350000e+00
      vertex   1.613626e+01 -2.500000e+01 5.227176e+00
      vertex   1.606769e+01 -2.500000e+01 5.166060e+00
    endloop
  endfacet
  facet normal 0.000000e+00 1.000000e+00 0.000000e+00
    outer loop
      vertex   1.606769e+01 -2.500000e+01 5.166060e+00
      vertex   1.600924e+01 -2.500000e+01 5.095191e+00
      vertex   2.100000e+00 -2.500000e+01 6.350000e+00
    endloop
  endfacet
  facet normal 0.000000e+00 1.000000e+00 0.000000e+00
    outer loop
      vertex   2.100000e+00 -2.500000e+01 6.350000e+00
      vertex   1.600924e+01 -2.500000e+01 5.095191e+00
      vertex   1.596230e+01 -2.500000e+01 5.016232e+00
    endloop
  endfacet
  facet normal 0.000000e+00 1.000000e+00 0.000000e+00
    outer loop
      vertex   2.100000e+00 -2.500000e+01 6.350000e+00
      vertex   1.596230e+01 -2.500000e+01 5.016232e+00
      vertex   1.592796e+01 -2.500000e+01 4.931032e+00
    endloop
  endfacet
  facet normal 0.000000e+00 1.000000e+00 0.000000e+00
    outer loop
      vertex   1.592796e+01 -2.500000e+01 4.931032e+00
      vertex   1.590703e+01 -2.500000e+01 4.841590e+00
      vertex   2.100000e+00 -2.500000e+01 6.350000e+00
    endloop
  endfacet
  facet normal 0.000000e+00 1.000000e+00 0.000000e+00
    outer loop
      vertex   2.100000e+00 -2.500000e+01 6.350000e+00
      vertex   1.590703e+01 -2.500000e+01 4.841590e+00
      vertex   1.590000e+01 -2.500000e+01 4.750000e+00
    endloop
  endfacet
  facet normal 0.000000e+00 1.000000e+00 0.000000e+00
    outer loop
      vertex   -1.709297e+01 -2.500000e+01 4.658410e+00
      vertex   -1.750000e+01 -2.500000e+01 0.000000e+00
      vertex   -1.710000e+01 -2.500000e+01 4.750000e+00
    endloop
  endfacet
  facet normal 0.000000e+00 1.000000e+00 0.000000e+00
    outer loop
      vertex   -1.710000e+01 -2.500000e+01 4.750000e+00
      vertex   -1.750000e+01 -2.500000e+01 0.000000e+00
      vertex   -1.750000e+01 -2.500000e+01 9.500000e+00
    endloop
  endfacet
  facet normal 0.000000e+00 1.000000e+00 -0.000000e+00
    outer loop
      vertex   -1.710000e+01 -2.500000e+01 4.750000e+00
      vertex   -1.750000e+01 -2.500000e+01 9.500000e+00
      vertex   -1.709297e+01 -2.500000e+01 4.841590e+00
    endloop
  endfacet
  facet normal 0.000000e+00 1.000000e+00 -0.000000e+00
    outer loop
      vertex   -1.709297e+01 -2.500000e+01 4.841590e+00
      vertex   -1.750000e+01 -2.500000e+01 9.500000e+00
      vertex   -1.707204e+01 -2.500000e+01 4.931032e+00
    endloop
  endfacet
  facet normal 0.000000e+00 1.000000e+00 -0.000000e+00
    outer loop
      vertex   -1.707204e+01 -2.500000e+01 4.931032e+00
      vertex   -1.750000e+01 -2.500000e+01 9.500000e+00
      vertex   -1.703770e+01 -2.500000e+01 5.016232e+00
    endloop
  endfacet
  facet normal 0.000000e+00 1.000000e+00 -0.000000e+00
    outer loop
      vertex   -1.703770e+01 -2.500000e+01 5.016232e+00
      vertex   -1.750000e+01 -2.500000e+01 9.500000e+00
      vertex   -1.699076e+01 -2.500000e+01 5.095191e+00
    endloop
  endfacet
  facet normal 0.000000e+00 1.000000e+00 -0.000000e+00
    outer loop
      vertex   -1.699076e+01 -2.500000e+01 5.095191e+00
      vertex   -1.750000e+01 -2.500000e+01 9.500000e+00
      vertex   -1.693231e+01 -2.500000e+01 5.166060e+00
    endloop
  endfacet
  facet normal 0.000000e+00 1.000000e+00 -0.000000e+00
    outer loop
      vertex   -1.693231e+01 -2.500000e+01 5.166060e+00
      vertex   -1.750000e+01 -2.500000e+01 9.500000e+00
      vertex   -1.686374e+01 -2.500000e+01 5.227176e+00
    endloop
  endfacet
  facet normal 0.000000e+00 1.000000e+00 -0.000000e+00
    outer loop
      vertex   -1.686374e+01 -2.500000e+01 5.227176e+00
      vertex   -1.750000e+01 -2.500000e+01 9.500000e+00
      vertex   -1.678663e+01 -2.500000e+01 5.277107e+00
    endloop
  endfacet
  facet normal 0.000000e+00 1.000000e+00 -0.000000e+00
    outer loop
      vertex   -1.678663e+01 -2.500000e+01 5.277107e+00
      vertex   -1.750000e+01 -2.500000e+01 9.500000e+00
      vertex   -1.670281e+01 -2.500000e+01 5.314684e+00
    endloop
  endfacet
  facet normal 0.000000e+00 1.000000e+00 -0.000000e+00
    outer loop
      vertex   -1.670281e+01 -2.500000e+01 5.314684e+00
      vertex   -1.750000e+01 -2.500000e+01 9.500000e+00
      vertex   -1.661423e+01 -2.500000e+01 5.339025e+00
    endloop
  endfacet
  facet normal 0.000000e+00 1.000000e+00 -0.000000e+00
    outer loop
      vertex   -1.661423e+01 -2.500000e+01 5.339025e+00
      vertex   -1.750000e+01 -2.500000e+01 9.500000e+00
      vertex   -1.652298e+01 -2.500000e+01 5.349560e+00
    endloop
  endfacet
  facet normal -0.000000e+00 1.000000e+00 -0.000000e+00
    outer loop
      vertex   -1.652298e+01 -2.500000e+01 5.349560e+00
      vertex   -1.750000e+01 -2.500000e+01 9.500000e+00
      vertex   -1.643119e+01 -2.500000e+01 5.346041e+00
    endloop
  endfacet
  facet normal 0.000000e+00 1.000000e+00 -0.000000e+00
    outer loop
      vertex   -1.643119e+01 -2.500000e+01 5.346041e+00
      vertex   -1.750000e+01 -2.500000e+01 9.500000e+00
      vertex   -2.100000e+00 -2.500000e+01 6.350000e+00
    endloop
  endfacet
  facet normal -0.000000e+00 1.000000e+00 0.000000e+00
    outer loop
      vertex   -1.643119e+01 -2.500000e+01 5.346041e+00
      vertex   -2.100000e+00 -2.500000e+01 6.350000e+00
      vertex   -1.634101e+01 -2.500000e+01 5.328552e+00
    endloop
  endfacet
  facet normal -0.000000e+00 1.000000e+00 0.000000e+00
    outer loop
      vertex   -1.634101e+01 -2.500000e+01 5.328552e+00
      vertex   -2.100000e+00 -2.500000e+01 6.350000e+00
      vertex   -1.625456e+01 -2.500000e+01 5.297502e+00
    endloop
  endfacet
  facet normal -0.000000e+00 1.000000e+00 0.000000e+00
    outer loop
      vertex   -1.625456e+01 -2.500000e+01 5.297502e+00
      vertex   -2.100000e+00 -2.500000e+01 6.350000e+00
      vertex   -1.617386e+01 -2.500000e+01 5.253619e+00
    endloop
  endfacet
  facet normal -0.000000e+00 1.000000e+00 0.000000e+00
    outer loop
      vertex   -1.617386e+01 -2.500000e+01 5.253619e+00
      vertex   -2.100000e+00 -2.500000e+01 6.350000e+00
      vertex   -1.610080e+01 -2.500000e+01 5.197932e+00
    endloop
  endfacet
  facet normal -0.000000e+00 1.000000e+00 0.000000e+00
    outer loop
      vertex   -1.610080e+01 -2.500000e+01 5.197932e+00
      vertex   -2.100000e+00 -2.500000e+01 6.350000e+00
      vertex   -1.603711e+01 -2.500000e+01 5.131745e+00
    endloop
  endfacet
  facet normal -0.000000e+00 1.000000e+00 0.000000e+00
    outer loop
      vertex   -1.603711e+01 -2.500000e+01 5.131745e+00
      vertex   -2.100000e+00 -2.500000e+01 6.350000e+00
      vertex   -1.598426e+01 -2.500000e+01 5.056611e+00
    endloop
  endfacet
  facet normal -0.000000e+00 1.000000e+00 0.000000e+00
    outer loop
      vertex   -1.598426e+01 -2.500000e+01 5.056611e+00
      vertex   -2.100000e+00 -2.500000e+01 6.350000e+00
      vertex   -1.594350e+01 -2.500000e+01 4.974290e+00
    endloop
  endfacet
  facet normal 0.000000e+00 1.000000e+00 0.000000e+00
    outer loop
      vertex   -1.709297e+01 -2.500000e+01 4.658410e+00
      vertex   -1.707204e+01 -2.500000e+01 4.568968e+00
      vertex   -1.750000e+01 -2.500000e+01 0.000000e+00
    endloop
  endfacet
  facet normal 0.000000e+00 1.000000e+00 0.000000e+00
    outer loop
      vertex   -1.750000e+01 -2.500000e+01 0.000000e+00
      vertex   -1.707204e+01 -2.500000e+01 4.568968e+00
      vertex   -1.703770e+01 -2.500000e+01 4.483768e+00
    endloop
  endfacet
  facet normal 0.000000e+00 1.000000e+00 0.000000e+00
    outer loop
      vertex   -1.750000e+01 -2.500000e+01 0.000000e+00
      vertex   -1.703770e+01 -2.500000e+01 4.483768e+00
      vertex   -1.699076e+01 -2.500000e+01 4.404809e+00
    endloop
  endfacet
  facet normal 0.000000e+00 1.000000e+00 0.000000e+00
    outer loop
      vertex   -1.699076e+01 -2.500000e+01 4.404809e+00
      vertex   -1.693231e+01 -2.500000e+01 4.333940e+00
      vertex   -1.750000e+01 -2.500000e+01 0.000000e+00
    endloop
  endfacet
  facet normal 0.000000e+00 1.000000e+00 0.000000e+00
    outer loop
      vertex   -1.750000e+01 -2.500000e+01 0.000000e+00
      vertex   -1.693231e+01 -2.500000e+01 4.333940e+00
      vertex   -1.686374e+01 -2.500000e+01 4.272824e+00
    endloop
  endfacet
  facet normal 0.000000e+00 1.000000e+00 0.000000e+00
    outer loop
      vertex   -1.750000e+01 -2.500000e+01 0.000000e+00
      vertex   -1.686374e+01 -2.500000e+01 4.272824e+00
      vertex   -1.678663e+01 -2.500000e+01 4.222893e+00
    endloop
  endfacet
  facet normal 0.000000e+00 1.000000e+00 0.000000e+00
    outer loop
      vertex   -1.678663e+01 -2.500000e+01 4.222893e+00
      vertex   -1.670281e+01 -2.500000e+01 4.185316e+00
      vertex   -1.750000e+01 -2.500000e+01 0.000000e+00
    endloop
  endfacet
  facet normal 0.000000e+00 1.000000e+00 0.000000e+00
    outer loop
      vertex   -1.750000e+01 -2.500000e+01 0.000000e+00
      vertex   -1.670281e+01 -2.500000e+01 4.185316e+00
      vertex   -1.661423e+01 -2.500000e+01 4.160975e+00
    endloop
  endfacet
  facet normal 0.000000e+00 1.000000e+00 0.000000e+00
    outer loop
      vertex   -1.750000e+01 -2.500000e+01 0.000000e+00
      vertex   -1.661423e+01 -2.500000e+01 4.160975e+00
      vertex   -1.652298e+01 -2.500000e+01 4.150440e+00
    endloop
  endfacet
  facet normal -0.000000e+00 1.000000e+00 0.000000e+00
    outer loop
      vertex   -1.652298e+01 -2.500000e+01 4.150440e+00
      vertex   -1.643119e+01 -2.500000e+01 4.153959e+00
      vertex   -1.750000e+01 -2.500000e+01 0.000000e+00
    endloop
  endfacet
  facet normal -0.000000e+00 1.000000e+00 0.000000e+00
    outer loop
      vertex   -1.634101e+01 -2.500000e+01 4.171448e+00
      vertex   -1.625456e+01 -2.500000e+01 4.202498e+00
      vertex   -2.100000e+00 -2.500000e+01 3.150000e+00
    endloop
  endfacet
  facet normal 0.000000e+00 1.000000e+00 0.000000e+00
    outer loop
      vertex   -2.100000e+00 -2.500000e+01 3.150000e+00
      vertex   -1.625456e+01 -2.500000e+01 4.202498e+00
      vertex   -1.617386e+01 -2.500000e+01 4.246381e+00
    endloop
  endfacet
  facet normal 0.000000e+00 1.000000e+00 0.000000e+00
    outer loop
      vertex   -2.100000e+00 -2.500000e+01 3.150000e+00
      vertex   -1.617386e+01 -2.500000e+01 4.246381e+00
      vertex   -1.610080e+01 -2.500000e+01 4.302068e+00
    endloop
  endfacet
  facet normal -0.000000e+00 1.000000e+00 0.000000e+00
    outer loop
      vertex   -1.610080e+01 -2.500000e+01 4.302068e+00
      vertex   -1.603711e+01 -2.500000e+01 4.368255e+00
      vertex   -2.100000e+00 -2.500000e+01 3.150000e+00
    endloop
  endfacet
  facet normal 0.000000e+00 1.000000e+00 0.000000e+00
    outer loop
      vertex   -2.100000e+00 -2.500000e+01 3.150000e+00
      vertex   -1.603711e+01 -2.500000e+01 4.368255e+00
      vertex   -1.598426e+01 -2.500000e+01 4.443389e+00
    endloop
  endfacet
  facet normal 0.000000e+00 1.000000e+00 0.000000e+00
    outer loop
      vertex   -2.100000e+00 -2.500000e+01 3.150000e+00
      vertex   -1.598426e+01 -2.500000e+01 4.443389e+00
      vertex   -1.594350e+01 -2.500000e+01 4.525710e+00
    endloop
  endfacet
  facet normal -0.000000e+00 1.000000e+00 0.000000e+00
    outer loop
      vertex   -1.594350e+01 -2.500000e+01 4.525710e+00
      vertex   -1.591578e+01 -2.500000e+01 4.613288e+00
      vertex   -2.100000e+00 -2.500000e+01 3.150000e+00
    endloop
  endfacet
  facet normal 0.000000e+00 1.000000e+00 0.000000e+00
    outer loop
      vertex   -2.100000e+00 -2.500000e+01 3.150000e+00
      vertex   -1.591578e+01 -2.500000e+01 4.613288e+00
      vertex   -1.590176e+01 -2.500000e+01 4.704070e+00
    endloop
  endfacet
  facet normal 0.000000e+00 1.000000e+00 0.000000e+00
    outer loop
      vertex   -2.100000e+00 -2.500000e+01 3.150000e+00
      vertex   -1.590176e+01 -2.500000e+01 4.704070e+00
      vertex   -1.590176e+01 -2.500000e+01 4.795930e+00
    endloop
  endfacet
  facet normal -0.000000e+00 1.000000e+00 0.000000e+00
    outer loop
      vertex   -1.750000e+01 -2.500000e+01 9.500000e+00
      vertex   1.750000e+01 -2.500000e+01 9.500000e+00
      vertex   -2.100000e+00 -2.500000e+01 6.350000e+00
    endloop
  endfacet
endsolid
